<svg width="2600" height="1300" viewBox="0 0 2600 1300" fill="none" xmlns="http://www.w3.org/2000/svg">
<g clip-path="url(#clip0_8_2)">
<rect width="2600" height="1300" transform="matrix(-1 0 0 -1 2600 1300)" fill="#E5E9E2"/>
<path d="M-367.606 617.205C-367.007 605.968 -366.042 595.143 -364.706 584.79C-357.388 527.947 -339.536 487.037 -311.644 463.198C-283.113 438.807 -244.594 433.048 -197.149 446.078C-53.1188 485.638 35.538 521.652 94.1983 545.481C120.602 556.207 141.459 564.68 157.947 569.561C185.386 577.681 220.763 608.198 250.279 649.199C282.039 693.323 300.224 739.728 300.167 776.52C300.088 827.26 319.016 883.401 334.911 921.561C353.427 966.013 378.96 1012.42 403.215 1045.69C418.875 1067.16 418.322 1088.28 401.622 1106.73C372.701 1138.69 299.207 1158.59 209.828 1158.65C167.466 1158.68 123.655 1158.71 81.4744 1156.99C34.8355 1155.1 -4.73814 1151.2 -39.5064 1145.09C-81.0193 1137.78 -116.962 1127.2 -149.379 1112.74C-185.571 1096.6 -216.614 1076.02 -244.283 1049.82C-291.539 1005.07 -338.563 885.955 -358.639 760.146C-366.848 708.68 -369.875 659.949 -367.599 617.206L-367.606 617.205ZM412.617 1078.3C413.17 1067.91 409.478 1057.1 401.526 1046.2C377.217 1012.85 351.638 966.369 333.095 921.849C317.173 883.613 298.201 827.348 298.281 776.461C298.335 739.858 280.227 693.653 248.584 649.699C219.266 608.971 184.265 578.701 157.239 570.703C140.629 565.786 119.728 557.294 93.2633 546.544C34.6522 522.734 -53.9188 486.758 -197.806 447.235C-244.38 434.444 -282.177 440.082 -310.155 463.996C-337.824 487.651 -355.552 528.346 -362.845 584.952C-369.241 634.595 -367.144 695.148 -356.783 760.065C-336.741 885.679 -289.861 1004.54 -242.778 1049.12C-215.252 1075.19 -184.385 1095.65 -148.395 1111.71C-116.162 1126.08 -80.4172 1136.6 -39.1155 1143.87C38.3714 1157.51 125.486 1157.45 209.732 1157.39C298.483 1157.33 371.388 1137.66 399.989 1106.05C407.889 1097.32 412.094 1087.99 412.61 1078.3L412.617 1078.3Z" fill="#343434" fill-opacity="0.07"/>
<path d="M-336.379 625.846C-335.906 616.957 -335.179 608.362 -334.192 600.09C-327.97 547.924 -312.035 510.376 -286.825 488.481C-261.339 466.35 -226.847 460.933 -184.306 472.38C-55.4761 506.333 29.4733 539.15 85.68 560.862C112.068 571.055 132.91 579.105 149.611 583.98C176.605 591.868 210.729 620.231 238.673 658.002C268.595 698.448 286.041 741.651 286.543 776.536C286.811 823.359 303.793 875.041 317.987 910.149C334.665 951.395 356.722 992.957 378.515 1024.18C392.261 1043.89 391.275 1063.24 375.661 1080.14C348.561 1109.49 280.944 1127.77 199.187 1127.86C122.059 1127.99 42.3011 1128.13 -30.2653 1115.29C-68.488 1108.52 -101.619 1098.76 -131.549 1085.44C-164.936 1070.59 -193.608 1051.68 -219.209 1027.64C-263.355 986.464 -307.767 876.862 -327.217 761.113C-335.422 712.274 -338.528 666.082 -336.385 625.842L-336.379 625.846ZM386.319 1053.2C386.812 1043.94 383.684 1034.34 376.921 1024.64C355.088 993.359 332.985 951.724 316.285 910.414C302.064 875.234 285.05 823.445 284.776 776.496C284.277 741.787 266.902 698.776 237.097 658.492C209.34 620.972 175.568 592.838 148.964 585.063C132.164 580.161 111.285 572.093 84.8474 561.884C28.6839 540.187 -56.1856 507.403 -184.898 473.482C-226.629 462.254 -260.443 467.552 -285.409 489.234C-310.416 510.951 -326.233 548.301 -332.431 600.243C-337.879 645.887 -335.462 701.492 -325.456 761.044C-306.04 876.606 -261.766 985.967 -217.782 1026.99C-192.319 1050.91 -163.804 1069.71 -130.613 1084.48C-100.855 1097.72 -67.9089 1107.43 -29.8789 1114.16C42.4638 1126.95 122.102 1126.82 199.118 1126.69C280.291 1126.6 347.357 1108.52 374.158 1079.5C381.775 1071.25 385.836 1062.39 386.325 1053.2L386.319 1053.2Z" fill="#343434" fill-opacity="0.07"/>
<path d="M-305.218 634.556C-304.867 627.974 -304.358 621.58 -303.689 615.378C-298.569 567.888 -284.544 533.698 -262.017 513.756C-239.575 493.885 -209.105 488.814 -171.456 498.687C-56.9969 527.257 21.1703 555.818 78.2384 576.673C104.138 586.137 124.597 593.61 141.289 598.41C168.245 606.183 200.315 631.755 227.08 666.816C255.158 703.595 271.865 743.596 272.927 776.561C274.045 854.326 321.92 954.391 353.822 1002.68C365.654 1020.62 364.235 1038.21 349.707 1053.57C324.428 1080.29 262.683 1096.96 188.567 1097.07C121.92 1097.27 46.3807 1097.49 -21.0104 1085.49C-55.9427 1079.28 -86.2627 1070.34 -113.706 1058.16C-144.287 1044.59 -170.589 1027.35 -194.121 1005.47C-214.707 986.6 -235.449 952.738 -254.095 907.555C-272.008 864.156 -286.813 812.489 -295.794 762.081C-304.02 715.893 -307.225 672.251 -305.218 634.56L-305.218 634.556ZM360.055 1028.08C360.487 1019.96 357.917 1011.57 352.319 1003.09C320.359 954.714 272.4 854.456 271.279 776.528C270.22 743.731 253.579 703.908 225.618 667.278C199.035 632.456 167.288 607.085 140.696 599.416C123.93 594.595 103.44 587.108 77.4972 577.629C20.4721 556.794 -57.6336 528.256 -171.987 499.709C-208.882 490.035 -238.718 494.993 -260.686 514.442C-283.029 534.222 -296.942 568.222 -302.039 615.504C-306.527 657.15 -303.803 707.81 -294.151 761.993C-285.181 812.35 -270.39 863.953 -252.5 907.301C-233.91 952.347 -213.268 986.079 -192.795 1004.85C-169.389 1026.61 -143.233 1043.75 -112.835 1057.24C-85.5511 1069.35 -55.3981 1078.24 -20.6521 1084.42C46.5213 1096.38 121.948 1096.16 188.488 1095.96C262.064 1095.85 323.304 1079.37 348.303 1052.94C355.67 1045.15 359.592 1036.78 360.056 1028.07L360.055 1028.08Z" fill="#343434" fill-opacity="0.07"/>
<path d="M-274.151 643.356C-273.92 639.022 -273.613 634.788 -273.223 630.643C-269.2 587.83 -257.098 557.001 -237.254 539.007C-217.838 521.405 -191.384 516.69 -158.627 524.989C-57.4719 548.416 17.7103 574.234 72.601 593.085C96.2568 601.209 116.684 608.224 132.953 612.834C159.476 620.379 190.327 643.853 215.472 675.62C241.693 708.749 257.673 745.549 259.303 776.582C260.064 807.418 268.654 845.712 284.145 887.334C296.579 920.741 312.973 954.945 329.12 981.179C339.052 997.345 337.192 1013.19 323.731 1027C300.255 1051.1 244.388 1066.15 177.926 1066.28C108.161 1066.59 45.7281 1066 -11.7761 1055.69C-43.4183 1050.02 -70.9329 1041.9 -95.8893 1030.86C-123.659 1018.58 -147.597 1003.02 -169.06 983.293C-188.204 966.093 -207.558 935.38 -225.026 894.472C-241.735 855.337 -255.726 808.653 -264.421 763.017C-272.709 719.502 -276.038 678.444 -274.169 643.347L-274.151 643.356ZM333.829 1002.93C334.199 995.969 332.166 988.788 327.708 981.531C311.532 955.253 295.11 920.994 282.66 887.54C267.142 845.84 258.53 807.466 257.773 776.563C256.147 745.693 240.24 709.06 214.124 676.071C189.15 644.518 158.596 621.227 132.407 613.78C116.082 609.154 95.6305 602.13 71.9502 593.996C17.1026 575.159 -58.0179 549.362 -159.092 525.955C-191.156 517.831 -217.027 522.436 -236.001 539.643C-255.681 557.486 -267.685 588.141 -271.692 630.758C-275.222 668.414 -272.184 714.121 -262.88 762.944C-254.195 808.529 -240.225 855.158 -223.533 894.242C-206.121 935.026 -186.855 965.617 -167.819 982.719C-146.469 1002.34 -122.671 1017.81 -95.0665 1030.02C-70.2572 1040.99 -42.897 1049.07 -11.4289 1054.71C45.8826 1064.98 108.202 1065.57 177.861 1065.27C243.833 1065.13 299.234 1050.25 322.444 1026.42C329.586 1019.09 333.396 1011.17 333.835 1002.94L333.829 1002.93Z" fill="#343434" fill-opacity="0.07"/>
<path d="M-243.201 652.264C-243.087 650.108 -242.948 647.982 -242.786 645.878C-239.865 607.742 -229.68 580.27 -212.512 564.225C-196.11 548.898 -173.659 544.542 -145.777 551.289C-56.5574 569.789 16.6232 593.249 70.0557 610.379C91.2412 617.171 109.539 623.04 124.631 627.252C151.135 634.687 180.018 655.526 203.879 684.421C228.242 713.925 243.482 747.519 245.686 776.596C247.826 834.106 277.641 911.809 304.433 959.672C312.475 974.084 310.168 988.188 297.763 1000.46C276.078 1021.9 226.094 1035.33 167.311 1035.49C107.821 1035.86 50.0685 1035.4 -2.50885 1025.9C-30.8547 1020.77 -55.5642 1013.47 -78.0338 1003.57C-102.999 992.573 -124.559 978.688 -143.96 961.123C-161.663 945.598 -179.64 918.024 -195.936 881.391C-211.448 846.519 -224.625 804.811 -233.041 763.95C-241.441 723.14 -244.928 684.7 -243.208 652.264L-243.201 652.264ZM307.669 977.74C307.977 971.95 306.462 965.988 303.106 959.969C276.274 912.033 246.41 834.198 244.269 776.592C242.075 747.67 226.901 714.23 202.639 684.853C178.937 656.15 150.321 635.476 124.127 628.129C109.004 623.906 90.6871 618.033 69.4831 611.236C16.0939 594.116 -57.0313 570.675 -146.182 552.188C-173.433 545.596 -195.344 549.842 -211.351 564.802C-228.367 580.703 -238.467 608.013 -241.373 645.97C-243.937 679.633 -240.586 720.4 -231.631 763.862C-223.224 804.672 -210.069 846.329 -194.575 881.158C-178.329 917.68 -160.44 945.141 -142.839 960.576C-123.547 978.051 -102.107 991.855 -77.2956 1002.78C-54.961 1012.62 -30.3933 1019.88 -2.203 1024.98C50.2003 1034.46 107.846 1034.91 167.23 1034.55C225.567 1034.39 275.122 1021.12 296.562 999.908C303.53 993.017 307.241 985.535 307.656 977.743L307.669 977.74Z" fill="#343434" fill-opacity="0.07"/>
<path d="M-212.424 661.33L-212.412 661.092C-210.599 627.632 -202.331 603.517 -187.846 589.422C-174.438 576.369 -155.961 572.392 -132.934 577.6C-54.0178 591.26 19.1577 613.047 72.5863 628.955C89.319 633.937 103.766 638.241 116.308 641.69C142.415 648.907 170.108 667.7 192.285 693.239C214.78 719.146 229.288 749.543 232.075 776.63C233.386 801.502 239.529 831.069 250.322 864.526C258.444 889.693 269.169 916.538 279.75 938.185C285.909 950.853 283.148 963.221 271.759 973.964C251.847 992.748 207.755 1004.53 156.689 1004.72C106.946 1005.14 54.3945 1004.82 6.74417 996.109C-18.3113 991.529 -40.2034 985.046 -60.1985 976.285C-82.3519 966.576 -101.548 954.364 -118.874 938.956C-151.119 911.496 -184.415 841.527 -201.717 764.858C-210.307 726.803 -214.005 691.012 -212.424 661.33ZM281.605 952.497C281.85 947.896 280.821 943.178 278.508 938.42C267.916 916.748 257.174 889.864 249.047 864.672C238.238 831.167 232.091 801.546 230.775 776.636C227.999 749.696 213.566 719.445 191.171 693.652C169.142 668.284 141.692 649.639 115.863 642.495C103.31 639.041 88.8499 634.736 72.1111 629.75C18.7259 613.852 -54.388 592.085 -133.243 578.437C-155.705 573.359 -173.687 577.233 -186.744 589.941C-201.091 603.905 -209.288 627.869 -211.092 661.166L-211.104 661.404C-212.682 691.033 -208.987 726.765 -200.407 764.769C-183.135 841.298 -149.95 911.09 -117.831 938.447C-100.595 953.775 -81.5134 965.914 -59.4951 975.565C-39.6287 984.27 -17.8601 990.716 7.0523 995.272C54.5348 1003.95 106.98 1004.26 156.635 1003.85C207.306 1003.66 251.014 992.014 270.695 973.443C277.559 966.969 281.224 959.885 281.617 952.506L281.605 952.497Z" fill="#343434" fill-opacity="0.07"/>
<path d="M-181.908 670.466C-180.534 644.671 -174.282 625.879 -163.295 614.559C-152.846 603.796 -138.329 600.206 -120.135 603.889C-49.7723 612.4 27.1606 633.739 83.3423 649.321C92.1598 651.765 100.483 654.074 107.979 656.108C134.104 663.226 159.922 679.538 180.685 702.04C201.614 724.731 215.03 751.226 218.458 776.645C219.734 794.16 225.845 842.834 255.056 916.681C259.343 927.622 256.115 938.281 245.704 947.502C227.548 963.586 189.368 973.709 146.068 973.922C105.522 974.386 58.6904 974.218 15.9986 966.307C-29.1227 957.947 -65.0295 941.746 -93.787 916.777C-108.636 904.584 -123.879 883.279 -137.868 855.181C-151.189 828.42 -162.462 797.488 -170.465 765.731C-178.727 732.934 -182.764 701.995 -182.135 676.256C-182.086 674.289 -182.008 672.356 -181.908 670.462L-181.908 670.466ZM255.672 927.155C255.852 923.776 255.264 920.327 253.905 916.854C249.232 905.039 240.199 881.062 232.238 853.23C223.874 824.01 218.838 798.254 217.271 776.669C213.86 751.389 200.513 725.024 179.678 702.443C159.058 680.095 133.453 663.903 107.576 656.853C100.079 654.818 91.75 652.509 82.9263 650.064C26.7879 634.493 -50.0893 613.17 -120.333 604.678L-120.402 604.666C-138.05 601.082 -152.14 604.565 -162.284 615.019C-173.796 626.88 -180.251 648.075 -180.939 676.312C-181.567 702.004 -177.539 732.889 -169.287 765.638C-161.294 797.354 -150.038 828.247 -136.74 854.969C-122.802 882.973 -107.63 904.181 -92.8709 916.307C-64.2815 941.134 -28.5829 957.236 16.2587 965.547C58.7951 973.429 105.526 973.596 145.984 973.131C188.945 972.921 226.775 962.913 244.726 947.011C251.607 940.919 255.285 934.183 255.659 927.163L255.672 927.155Z" fill="#343434" fill-opacity="0.07"/>
<path d="M-151.82 680.365C-150.845 662.049 -146.456 648.094 -138.941 639.638C-131.392 631.147 -120.757 627.969 -107.322 630.19C-43.8428 632.219 56.7092 659.069 99.6573 670.534C153.286 684.922 196.541 728.566 204.842 776.666C208.612 814.753 220.87 860.06 228.188 887.13C228.963 890.003 229.692 892.702 230.362 895.193C232.8 904.438 229.054 913.412 219.544 921.134C203.122 934.469 170.899 942.898 135.441 943.135C99.401 943.697 61.1102 943.281 25.2472 936.511C-13.0199 929.286 -43.7512 915.582 -68.7055 894.605C-95.1168 873.89 -122.836 823.64 -139.312 766.588C-147.232 739.156 -151.621 713.154 -152.006 691.394C-152.071 687.563 -152.013 683.881 -151.826 680.361L-151.82 680.365ZM229.974 901.669C230.086 899.562 229.86 897.434 229.297 895.287C228.633 892.796 227.904 890.101 227.122 887.228C219.798 860.145 207.529 814.813 203.761 776.701C195.508 728.879 152.547 685.493 99.289 671.204C56.3845 659.747 -44.0933 632.917 -107.385 630.911L-107.442 630.908L-107.498 630.901C-120.453 628.747 -130.719 631.818 -138.014 640.026C-146.878 650 -151.344 667.774 -150.934 691.422C-150.553 713.14 -146.175 739.099 -138.265 766.484C-121.82 823.413 -94.2003 873.529 -67.8976 894.163C-12.4879 940.743 62.891 943.539 135.354 942.415C170.523 942.179 202.447 933.844 218.678 920.661C225.781 914.894 229.595 908.425 229.955 901.672L229.974 901.669Z" fill="#343434" fill-opacity="0.07"/>
<path d="M-122.477 690.55C-121.881 679.355 -119.401 670.485 -114.999 664.662C-110.255 658.393 -103.376 655.643 -94.5545 656.489C-77.1061 653.804 -47.7157 656.042 -7.19535 663.136C22.3277 668.305 58.2344 676.257 91.3216 684.958C144.393 698.974 181.734 733.264 191.212 776.687C193.26 791.838 195.851 807.634 198.357 822.91C201.597 842.667 204.651 861.328 205.661 873.705C206.449 884.121 198.099 893.87 182.156 901.158C167.043 908.067 146.145 912.141 124.813 912.348C75.959 913.399 50.8842 909.889 34.4944 906.715C3.09357 900.634 -22.4619 889.419 -43.6255 872.434C-67.2494 854.991 -92.0516 814.777 -108.333 767.486C-118.734 737.278 -123.534 710.297 -122.483 690.55L-122.477 690.55ZM204.72 875.939C204.759 875.2 204.748 874.459 204.694 873.712C203.689 861.352 200.635 842.704 197.395 822.955C194.889 807.674 192.304 791.875 190.255 776.736C180.832 733.575 143.732 699.482 91.0072 685.561C57.9508 676.869 22.0876 668.924 -7.39806 663.761C-47.8313 656.68 -77.103 654.453 -94.3818 657.134L-94.4703 657.146L-94.5579 657.142C-102.978 656.308 -109.562 658.94 -114.131 664.972C-126.219 680.935 -123.633 720.172 -107.385 767.365C-91.1422 814.549 -66.4344 854.65 -42.907 872.02C-21.8699 888.906 3.52022 900.046 34.7221 906.092C65.7875 912.109 99.1484 912.249 124.741 911.696C145.903 911.496 166.617 907.458 181.583 900.617C196.104 893.978 204.216 885.282 204.714 875.938L204.72 875.939Z" fill="#343434" fill-opacity="0.07"/>
<path d="M-94.5666 701.362C-94.3201 696.732 -93.48 692.857 -92.0234 689.894C-89.8852 685.561 -86.4705 683.178 -81.8645 682.817C-71.7262 674.949 -38.8567 677.251 -13.0254 680.576C16.1088 684.327 52.0018 691.358 83.0042 699.384C109.673 706.313 130.237 715.82 145.878 728.453C161.85 741.355 172.223 757.138 177.6 776.708C183.17 806.207 184.484 835.847 180.951 852.232C179.178 860.207 170.94 867.624 157.765 873.118C145.438 878.255 129.556 881.334 114.19 881.557C73.5769 882.812 21.7959 880.39 -18.5334 850.262C-39.2194 836.21 -61.2605 805.772 -77.4663 768.855C-89.3133 741.875 -95.4103 717.209 -94.5664 701.358L-94.5666 701.362ZM181.836 837.852C182.721 821.234 180.945 798.965 176.755 776.776C171.416 757.325 161.101 741.633 145.232 728.812C129.692 716.259 109.251 706.809 82.7308 699.921C24.793 684.915 -64.4012 669.834 -81.2995 683.282L-81.4042 683.364L-81.568 683.377C-85.9067 683.669 -89.1457 685.931 -91.1997 690.096C-97.6149 703.107 -91.8979 733.969 -76.6373 768.723C-60.4706 805.55 -38.5188 835.896 -17.9113 849.89C22.1767 879.837 73.7139 882.242 114.133 880.993L114.145 880.994C129.367 880.771 145.103 877.723 157.308 872.634C170.283 867.226 178.382 859.943 180.122 852.13C180.989 848.106 181.56 843.28 181.849 837.853L181.836 837.852Z" fill="#343434" fill-opacity="0.07"/>
<path d="M-70.5639 713.829C-70.4575 711.831 -69.993 710.295 -69.143 709.299C-69.6914 705.928 -67.9974 703.219 -64.1276 701.246C-52.8018 695.47 -25.4151 697.041 -4.42526 699.376C20.5443 702.152 50.1177 707.554 74.6881 713.82C102.477 720.917 120.859 728.149 134.278 737.272C148.594 746.998 158.034 759.544 163.989 776.744C169.373 796.311 166.323 817.52 156.224 830.782C147.077 842.664 122.275 850.283 103.582 850.781C64.9063 852.642 32.2642 845.01 6.57231 828.106C-3.97067 821.772 -14.8057 812.201 -25.6275 799.674C-34.9953 788.826 -44.0533 776.05 -51.8141 762.715C-63.9674 741.843 -71.0395 722.998 -70.5516 713.834L-70.5639 713.829ZM-68.3842 709.423L-68.4442 709.491C-69.2917 710.442 -69.7475 711.932 -69.8512 713.88C-70.9252 734.052 -33.7598 803.215 7.05597 827.743C32.5963 844.546 65.0342 852.126 103.49 850.274L103.502 850.275C121.995 849.783 146.521 842.262 155.554 830.529C165.585 817.355 168.609 796.266 163.258 776.81C157.341 759.716 147.971 747.254 133.759 737.596C120.419 728.532 102.128 721.338 74.451 714.267C49.9239 708.013 20.4061 702.626 -4.51961 699.852C-25.366 697.533 -52.5455 695.96 -63.6649 701.63C-67.3542 703.513 -68.9479 706.105 -68.392 709.335L-68.3775 709.415L-68.3842 709.423Z" fill="#343434" fill-opacity="0.07"/>
<path d="M-60.4214 726.392C-60.315 724.394 -59.3312 722.652 -57.4582 721.179C-52.7751 717.483 -40.0405 713.648 -5.99332 716.339C16.8318 718.144 43.8771 722.591 66.3598 728.235C92.9292 734.904 109.981 739.434 122.654 746.066C135.767 752.925 143.795 761.815 150.354 776.755C153.969 784.987 152.594 792.54 146.273 799.198C132.593 813.591 100.237 819.331 92.9612 819.981C79.3685 821.194 64.4498 818.911 48.616 813.19C34.9862 808.265 20.6448 800.796 5.97633 790.983C-20.531 773.25 -43.5062 750.81 -56.1684 735.725C-59.148 732.174 -60.5693 729.053 -60.4276 726.392L-60.4214 726.392ZM151.675 786.346C151.838 783.301 151.203 780.138 149.759 776.857C143.239 762.016 135.282 753.188 122.285 746.389C109.679 739.799 92.677 735.279 66.1632 728.626C25.173 718.337 -42.2672 709.861 -56.9773 721.455C-61.1558 724.746 -60.6988 729.481 -55.6245 735.528C-42.986 750.586 -20.0527 772.986 6.41237 790.689C21.0323 800.469 35.3248 807.915 48.8994 812.816C64.61 818.492 79.3978 820.761 92.8517 819.561C100.071 818.916 132.186 813.222 145.74 798.956C149.449 795.05 151.43 790.83 151.67 786.337L151.675 786.346Z" fill="#343434" fill-opacity="0.07"/>
<path d="M2667.66 565.457C2649.02 572.153 2629.94 578.319 2610.47 583.93C2500.92 615.533 2420.03 606.347 2363.16 555.854C2313.88 512.099 2290.07 444.207 2269.05 384.307C2255.03 344.32 2241.79 306.553 2222.93 282.443C2160.17 202.17 2119.75 193.785 2095.6 188.777C2081.62 185.877 2072.38 183.962 2067.96 169.407C2063.62 155.147 2108.44 118.881 2209 55.2759C2252.49 27.7688 2292.48 23.7075 2324.61 20.4464C2340.7 18.8119 2354.63 17.403 2365.83 13.3382C2396.67 2.16897 2403.89 -4.2317 2419.72 -18.256C2432.91 -29.9467 2452.85 -47.6222 2498.25 -78.0567C2538.13 -104.802 2605.76 -131.684 2674.74 -148.209C2713.99 -157.611 2752.34 -163.505 2788.74 -165.714C2829.48 -168.19 2866.83 -165.956 2899.74 -159.072C2960.71 -146.316 3005.58 -117.974 3033.1 -74.8316C3060.2 -32.3331 3075.85 15.4896 3079.61 67.2881C3083.34 118.742 3075.15 171.503 3055.29 224.113C3026.36 300.687 2973.41 373.066 2902.14 433.426C2864.15 465.601 2820.9 494.474 2773.6 519.226C2740.36 536.616 2704.9 552.093 2667.68 565.459L2667.66 565.457ZM2250.91 37.0027C2237.76 41.7252 2224.1 48.1348 2210.08 56.9971C2164.34 85.9228 2130.77 108.779 2107.45 126.878C2073.81 152.978 2068.46 164.089 2069.9 168.819C2073.97 182.218 2081.8 183.839 2096.01 186.788C2120.44 191.856 2161.31 200.335 2224.53 281.191C2243.59 305.566 2256.89 343.487 2270.97 383.633C2291.9 443.304 2315.62 510.934 2364.51 554.334C2420.82 604.33 2501.09 613.372 2609.91 581.981C2668.12 565.185 2722.87 543.465 2772.63 517.427C2819.8 492.744 2862.93 463.958 2900.81 431.876C2971.81 371.741 3024.56 299.649 3053.37 223.399C3073.13 171.072 3081.27 118.599 3077.56 67.4402C3073.83 15.9774 3058.29 -31.5219 3031.37 -73.7356C3004.16 -116.399 2959.73 -144.438 2899.31 -157.076C2866.58 -163.924 2829.41 -166.142 2788.85 -163.681C2752.57 -161.477 2714.33 -155.605 2675.2 -146.229C2606.43 -129.754 2539.06 -102.983 2499.36 -76.3642C2454.09 -46.0074 2434.21 -28.3912 2421.06 -16.7293C2405.04 -2.52696 2397.72 3.95085 2366.51 15.2505L2366.35 15.3078C2354.92 19.4122 2340.96 20.8284 2324.81 22.4685C2303.28 24.6524 2278.19 27.1987 2250.91 36.994L2250.91 37.0027Z" fill="#343434" fill-opacity="0.07"/>
<path d="M2664.65 527.218C2649.57 532.631 2634.19 537.667 2618.51 542.31C2519.9 571.75 2446.45 564.991 2393.99 521.624C2348.42 483.957 2325.19 424.181 2304.71 371.446C2290.44 334.715 2276.96 300.018 2257.93 278.008C2198.25 207.092 2159.31 198.594 2136.04 193.514C2121.97 190.447 2112.68 188.422 2108.2 174.357C2105.54 166.461 2116.23 151.958 2140 131.274C2161.38 112.663 2192.51 89.79 2230.03 65.1199C2269.13 39.1878 2305.18 34.3539 2334.14 30.4649C2348.14 28.5894 2360.24 26.9655 2370.39 23.3362C2402.58 11.8767 2409.64 6.46951 2430.59 -9.53245C2444.68 -20.2816 2463.96 -35.0067 2500.57 -59.1353C2538.06 -83.8627 2601.18 -108.861 2665.29 -124.378C2701.96 -133.256 2737.71 -138.861 2771.54 -141.051C2809.51 -143.509 2844.23 -141.548 2874.75 -135.243C2929.81 -123.868 2970.51 -98.6012 2995.72 -60.1512C3020.99 -21.4173 3035.8 22.2448 3039.74 69.6213C3043.66 116.696 3036.66 165.01 3018.93 213.218C2993.32 282.875 2945.89 348.849 2881.79 404.003C2847.61 433.413 2808.63 459.854 2765.93 482.591C2734.28 499.45 2700.35 514.39 2664.65 527.218ZM2272.82 45.7144C2259.45 50.517 2245.47 57.1759 2231.08 66.7132C2151.73 118.887 2105.33 159.9 2110.02 173.763C2114.17 186.794 2122.56 188.619 2136.45 191.654C2159.95 196.786 2199.29 205.371 2259.38 276.772C2278.62 299.018 2292.16 333.865 2306.49 370.755C2326.89 423.276 2350.02 482.8 2395.21 520.15C2447.14 563.075 2520 569.725 2617.97 540.476C2670.65 524.869 2720.13 504.825 2765.04 480.904C2807.61 458.225 2846.48 431.868 2880.55 402.549C2944.4 347.607 2991.64 281.908 3017.14 212.559C3034.77 164.617 3041.73 116.576 3037.84 69.7786C3033.92 22.7228 3019.22 -20.6375 2994.13 -59.1032C2969.21 -97.1123 2928.91 -122.102 2874.37 -133.373C2834.06 -141.702 2765.14 -146.581 2665.74 -122.518C2601.83 -107.044 2538.94 -82.1434 2501.62 -57.5334C2465.07 -33.4404 2445.81 -18.7394 2431.75 -8.00585C2411.19 7.68925 2403.48 13.5677 2371.03 25.1425C2360.69 28.8405 2348.51 30.475 2334.4 32.3657C2316.32 34.7937 2295.45 37.5943 2272.82 45.7207L2272.82 45.7144Z" fill="#343434" fill-opacity="0.07"/>
<path d="M2662.17 488.863C2650.53 493.043 2638.67 496.98 2626.56 500.689C2538.79 527.981 2472.79 523.572 2424.79 487.21C2382.95 455.527 2360.39 403.828 2340.48 358.211C2325.94 324.889 2312.19 293.409 2292.94 273.587C2236.46 212.008 2199.03 203.449 2176.67 198.34C2162.44 195.088 2153.03 192.939 2148.46 179.331C2141.64 160.96 2196.86 112.356 2251.07 74.9854C2285.97 50.457 2318.22 44.8342 2344.14 40.3191C2355.89 38.2725 2366.04 36.4985 2374.97 33.3493C2411.61 20.5298 2417.7 16.4282 2451.53 -6.2845C2464.27 -14.8389 2480.12 -25.4831 2502.9 -40.1902C2526.19 -55.239 2560.28 -70.7722 2598.9 -83.9114C2642.35 -98.6959 2687.72 -109.143 2730.09 -114.125C2780.22 -120.018 2824.46 -118.208 2861.57 -108.758C2904.8 -97.7465 2937.37 -76.4465 2958.37 -45.4579C2981.8 -10.4911 2995.78 29.0146 2999.92 71.9691C3004.03 114.671 2998.21 158.545 2982.62 202.356C2960.3 265.094 2918.41 324.658 2861.46 374.599C2806.67 422.651 2739.75 461.004 2662.16 488.865L2662.17 488.863ZM2295.38 53.9338C2281.63 58.8715 2267.11 65.8945 2252.09 76.4466C2187.54 120.952 2144.66 163.969 2150.14 178.733C2154.4 191.416 2162.94 193.369 2177.06 196.6C2199.63 201.76 2237.4 210.39 2294.24 272.366C2313.7 292.408 2327.5 324.026 2342.11 357.503C2361.93 402.92 2384.4 454.397 2425.86 485.795C2473.37 521.78 2538.85 526.096 2626.03 498.991C2718.67 470.655 2797.47 428.358 2860.29 373.264C2917.01 323.52 2958.73 264.213 2980.95 201.762C2996.45 158.191 3002.24 114.582 2998.15 72.1426C2994.04 29.4897 2980.16 -9.74421 2956.9 -44.4599C2936.15 -75.073 2903.93 -96.1239 2861.14 -107.025C2824.24 -116.423 2780.22 -118.218 2730.3 -112.352C2688.05 -107.386 2642.81 -96.9691 2599.48 -82.2193C2560.99 -69.1196 2527.04 -53.6668 2503.87 -38.6893C2481.1 -23.9931 2465.26 -13.3512 2452.52 -4.7991C2418.53 18.0223 2412.42 22.133 2375.55 35.039C2366.49 38.2363 2356.27 40.0142 2344.44 42.0818C2329.87 44.6217 2313.29 47.51 2295.37 53.9448L2295.38 53.9338Z" fill="#343434" fill-opacity="0.07"/>
<path d="M2659.07 450.786C2651.04 453.668 2642.89 456.424 2634.61 459.059C2557.59 484.204 2499.01 482.084 2455.51 452.56C2417.47 426.741 2396.56 384.922 2376.35 344.474C2361.5 314.76 2347.48 286.691 2327.96 269.147C2274.85 216.862 2240.37 208.656 2217.55 203.221C2202.49 199.638 2193.41 197.476 2188.72 184.275C2181.99 167.685 2218.62 123.989 2272.11 84.8305C2303.12 61.3773 2331.86 54.9355 2354.96 49.7633C2363.79 47.786 2372.14 45.9185 2379.55 43.3419L2383.31 42.0556C2426.57 27.2499 2430.09 26.0355 2505.24 -21.2764C2526.35 -34.591 2558.27 -49.0266 2592.8 -60.8934C2632.52 -74.5379 2673.86 -84.355 2712.36 -89.2861C2758.11 -95.1424 2798.48 -94.0791 2832.33 -86.1153C2871.83 -76.8245 2901.67 -58.206 2921.02 -30.7852C2942.63 0.416515 2955.78 35.7722 2960.13 74.3128C2964.44 112.653 2959.81 152.083 2946.36 191.522C2927.33 247.346 2890.94 300.488 2841.15 345.219C2791.63 389.703 2730.47 425.153 2659.07 450.792L2659.07 450.786ZM2319.07 61.2693C2304.67 66.4405 2289.18 73.9869 2273.1 86.1596C2221.07 124.254 2183.92 167.994 2190.27 183.682C2194.66 196.067 2203.42 198.154 2217.93 201.601C2239.53 206.74 2275.68 215.348 2329.09 267.934C2348.81 285.664 2362.91 313.873 2377.83 343.726C2397.94 383.98 2418.75 425.604 2456.43 451.184C2499.48 480.395 2557.59 482.455 2634.09 457.475C2715.83 431.489 2785.12 393.3 2840.04 343.973C2889.62 299.439 2925.84 246.534 2944.79 190.98C2958.16 151.778 2962.76 112.588 2958.47 74.4965C2954.16 36.2338 2941.11 1.13084 2919.66 -29.8347C2900.55 -56.912 2871.05 -75.3045 2831.96 -84.4976C2798.29 -92.4145 2758.13 -93.4717 2712.58 -87.6349C2674.19 -82.7149 2632.95 -72.924 2593.34 -59.3161C2558.92 -47.4969 2527.13 -33.1157 2506.13 -19.8679C2430.82 27.5505 2427.27 28.7677 2383.86 43.6306L2380.1 44.9146C2372.59 47.5169 2364.21 49.3918 2355.32 51.3873C2344.39 53.837 2332.18 56.5733 2319.08 61.2798L2319.07 61.2693Z" fill="#343434" fill-opacity="0.07"/>
<path d="M2655.95 412.836C2651.55 414.413 2647.13 415.946 2642.65 417.44C2493.87 469.024 2450.54 395.232 2412.31 330.13C2397.13 304.282 2382.79 279.86 2362.97 264.72C2313.48 221.687 2280.58 213.596 2258.81 208.244C2243.22 204.414 2233.81 202.101 2228.98 189.236C2225.47 181.261 2229.99 166.713 2241.39 149.362C2253.5 130.937 2271.88 111.519 2293.14 94.6878C2320.95 71.5158 2345.74 64.5009 2367.61 58.3157C2373.41 56.6718 2378.89 55.1209 2384.12 53.3509C2392.01 50.7142 2398.93 48.5667 2405.03 46.6694C2433.24 37.9154 2450.26 32.6303 2507.57 -2.3441C2544.1 -24.6948 2618.22 -53.6589 2694.63 -64.4286C2735.98 -70.2546 2772.47 -69.929 2803.08 -63.4566C2838.85 -55.8925 2865.96 -39.9578 2883.66 -16.096C2903.46 11.3446 2915.81 42.556 2920.36 76.6892C2924.89 110.671 2921.46 145.684 2910.15 180.748C2894.38 229.647 2863.5 276.375 2820.85 315.879C2776.63 356.823 2721.21 389.406 2655.95 412.842L2655.95 412.836ZM2344.5 67.0768C2328.96 72.6577 2312.17 80.8383 2294.11 95.8802C2248.42 132.048 2223.87 173.797 2230.39 188.654C2234.96 200.802 2244.07 203.037 2259.17 206.749C2281.08 212.134 2314.2 220.278 2363.93 263.526C2383.96 278.822 2398.37 303.368 2413.62 329.347C2432.98 362.321 2453.01 396.417 2486.88 416.316C2525.4 438.953 2576.19 438.849 2642.14 415.982C2712.99 392.359 2772.76 358.294 2819.79 314.743C2862.25 275.422 2892.98 228.921 2908.67 180.272C2919.91 145.428 2923.32 110.645 2918.82 76.8896C2914.3 43.0106 2902.05 12.0328 2882.41 -15.1908C2859.69 -45.8165 2808.71 -78.9558 2694.83 -62.91C2618.63 -52.173 2544.76 -23.3132 2508.36 -1.03607C2450.89 34.0384 2433.8 39.3487 2405.48 48.1353C2399.38 50.0303 2392.47 52.1732 2384.6 54.8053C2379.34 56.5954 2373.83 58.1468 2368.01 59.7976C2360.52 61.9219 2352.67 64.1421 2344.48 67.0836L2344.5 67.0768Z" fill="#343434" fill-opacity="0.07"/>
<path d="M2645.94 377.552C2592.25 396.834 2549.87 398.407 2516.53 382.369C2486.21 367.783 2466.95 340.926 2448.32 314.95C2432.81 293.304 2418.15 272.862 2397.99 260.275C2352.52 226.413 2321.34 218.604 2300.7 213.436C2284.24 209.309 2274.3 206.826 2269.23 194.186C2261.35 177.537 2278.88 135.639 2314.18 104.548C2340.9 79.1259 2363.92 71.5282 2386.18 64.1837L2388.71 63.3478C2399.45 59.8633 2408.67 57.5259 2417.57 55.2706C2441.45 49.2214 2464 43.5048 2509.91 16.5762C2543.33 -3.09551 2609.84 -29.0672 2676.89 -39.581C2733.41 -48.4467 2808.68 -49.0224 2846.3 -1.41433C2882.31 45.9205 2892.41 108.407 2874.02 170.043C2861.5 212.021 2836.09 252.32 2800.57 286.58C2761.72 324.041 2712.02 353.802 2652.8 375.066C2652.1 375.317 2651.4 375.569 2650.7 375.821C2649.11 376.415 2647.52 377 2645.94 377.565L2645.94 377.552ZM2373.27 70.0553C2355.24 76.5313 2336.36 85.3921 2315.13 105.587C2277.4 138.827 2263.73 179.252 2270.53 193.612C2275.35 205.621 2285.02 208.042 2301.05 212.059C2321.79 217.254 2353.14 225.102 2398.79 259.102C2419.14 271.807 2433.88 292.358 2449.48 314.124C2468 339.953 2487.15 366.661 2517.15 381.095C2551.11 397.423 2594.62 395.256 2650.22 374.482C2650.91 374.233 2651.62 373.979 2652.32 373.729C2711.35 352.529 2760.89 322.874 2799.59 285.551C2834.94 251.459 2860.22 211.373 2872.67 169.622C2881.77 139.115 2883.99 108.719 2879.26 79.2923C2874.51 49.7849 2863.05 22.9193 2845.19 -0.561775C2808 -47.6207 2733.26 -46.9994 2677.12 -38.1958C2610.25 -27.7033 2543.95 -1.81996 2510.64 17.7828C2464.56 44.8096 2441.91 50.5519 2417.93 56.6314C2409.05 58.8862 2399.86 61.2144 2389.15 64.6852L2386.63 65.5188C2382.21 66.9744 2377.78 68.4392 2373.28 70.053L2373.27 70.0553Z" fill="#343434" fill-opacity="0.07"/>
<path d="M2644.56 339.668C2605.29 353.772 2573.15 356.052 2546.62 346.679C2520.22 337.348 2501.91 317.691 2484.22 298.686C2469.09 282.447 2453.46 265.651 2433.01 255.831C2392.24 231.035 2363.04 223.75 2343.72 218.929C2325.75 214.445 2314.9 211.741 2309.49 199.139C2301.57 183.56 2307.63 142.774 2335.21 114.412C2354 92.6586 2371.38 80.3724 2393.29 73.3402C2404.95 69.691 2415.47 67.7071 2426.59 65.5979C2450.12 61.1443 2474.44 56.5418 2512.25 35.4919C2542.75 18.4305 2601.73 -4.56572 2659.17 -14.7402C2708.93 -23.5577 2775.31 -25.857 2808.95 13.2541C2841.53 53.167 2852.13 106.443 2838.05 159.432C2828.73 194.486 2808.77 228.346 2780.33 257.355C2748.88 289.442 2707.97 315.293 2658.75 334.185C2653.92 336.177 2649.19 338.006 2644.56 339.668ZM2389.81 75.8904C2369.94 83.0279 2353.69 95.0009 2336.16 115.286C2308.96 143.269 2302.89 183.309 2310.66 198.589C2315.84 210.635 2325.85 213.134 2344.04 217.673C2363.43 222.51 2392.75 229.824 2433.63 254.695C2454.24 264.594 2469.96 281.474 2485.17 297.805C2502.76 316.697 2520.95 336.236 2547.06 345.465C2576.39 355.83 2612.77 351.749 2658.28 332.994C2707.34 314.16 2748.09 288.415 2779.42 256.459C2807.7 227.614 2827.55 193.946 2836.81 159.107C2850.79 106.516 2840.27 53.6631 2807.97 14.0886C2774.74 -24.5498 2708.83 -22.2208 2659.4 -13.4644C2602.12 -3.31482 2543.3 19.6131 2512.9 36.6275C2474.9 57.7779 2450.47 62.4044 2426.85 66.8732C2415.76 68.971 2405.28 70.9561 2393.69 74.5778C2392.39 74.9956 2391.1 75.4366 2389.83 75.8922L2389.81 75.8904Z" fill="#343434" fill-opacity="0.07"/>
<path d="M2642.83 302.574C2579.55 325.296 2550.25 303.687 2519.41 280.952C2504.2 269.74 2488.47 258.145 2468.03 251.379C2433.25 235.43 2407.71 229.363 2389.08 224.938C2367.57 219.828 2355.73 217.016 2349.75 204.1C2345.17 195.676 2342.52 181.657 2342.86 167.561C2343.27 150.517 2348.01 135.16 2356.22 124.304C2368.48 104.601 2379.35 89.0476 2397.86 83.349C2409.58 79.855 2421.6 78.342 2434.34 76.7484C2457.32 73.8626 2483.37 70.5892 2514.59 54.4282C2536.18 43.1785 2587.2 21.1798 2641.43 10.1171C2669.65 4.36642 2694.51 2.47015 2715.33 4.49324C2739.92 6.88155 2758.84 14.7671 2771.58 27.9412C2800.88 60.4398 2812.08 104.562 2802.33 149.006C2796.15 177.139 2781.58 204.544 2760.18 228.277C2736.51 254.516 2705.1 276.153 2666.8 292.576C2658.29 296.581 2650.32 299.897 2642.83 302.589L2642.83 302.574ZM2396.18 85.1402C2379.27 91.2133 2368.89 106.168 2357.18 124.965C2338.42 149.776 2343.05 189.319 2350.79 203.574C2356.54 216.009 2368.2 218.777 2389.34 223.798C2408.03 228.236 2433.63 234.314 2468.46 250.291C2489.01 257.096 2504.81 268.749 2520.1 280.013C2537.52 292.863 2553.98 304.994 2576.24 309.381C2601.31 314.325 2629.93 308.644 2666.32 291.503C2704.48 275.137 2735.77 253.603 2759.31 227.487C2780.58 203.911 2795.06 176.682 2801.19 148.754C2810.86 104.684 2799.75 60.937 2770.72 28.7363C2758.21 15.7865 2739.52 8.01762 2715.21 5.65707C2694.51 3.64834 2669.76 5.53348 2641.66 11.2643C2587.55 22.2964 2536.67 44.2406 2515.13 55.4656C2483.73 71.7208 2457.57 75.014 2434.48 77.9126C2421.8 79.5029 2409.82 81.0127 2398.19 84.4747C2397.51 84.6831 2396.84 84.9108 2396.18 85.1488L2396.18 85.1402Z" fill="#343434" fill-opacity="0.07"/>
<path d="M2640.54 267.198C2602.32 280.922 2579.22 272.091 2551.51 261.509C2537.05 255.987 2522.09 250.274 2503.05 246.901C2477.22 239.32 2456.88 235.204 2440.54 231.889C2412.5 226.212 2397.06 223.086 2390.01 209.038C2381.15 193.722 2367.84 154.79 2377.22 134.251C2377.67 132.745 2378.11 131.233 2378.55 129.724C2383.13 113.921 2387.89 97.5823 2402.44 93.3417C2413.81 90.1536 2427.42 89.2724 2441.84 88.3406C2465.16 86.8311 2491.6 85.1235 2516.93 73.3356C2544.31 60.4808 2683.47 -1.40965 2734.2 42.5932C2760.49 67.6669 2772.5 102.727 2767.16 138.8C2763.98 160.323 2754.92 180.705 2740.25 199.382C2724.25 219.734 2702.25 237.076 2674.86 250.923C2662.08 258.231 2650.77 263.524 2640.54 267.198ZM2401.44 94.7681C2388.43 99.438 2383.92 114.976 2379.55 130.018C2379.11 131.545 2378.66 133.072 2378.21 134.586L2378.19 134.653C2368.93 154.838 2382.14 193.352 2390.92 208.543C2397.77 222.163 2413.04 225.25 2440.75 230.864C2457.11 234.179 2477.48 238.301 2503.29 245.887C2522.37 249.261 2537.37 254.992 2551.88 260.534C2586.74 273.85 2614.28 284.37 2674.36 250.006C2701.64 236.215 2723.53 218.971 2739.43 198.741C2753.99 180.212 2762.97 159.995 2766.13 138.652C2771.42 102.922 2759.52 68.1948 2733.5 43.3698C2713.29 25.8367 2676.43 23.3431 2623.94 35.9724C2577.74 47.0859 2534.03 66.4675 2517.38 74.2829C2491.87 86.15 2465.33 87.8729 2441.91 89.3802C2427.55 90.3064 2413.99 91.182 2402.73 94.3463C2402.29 94.4764 2401.86 94.617 2401.44 94.7681Z" fill="#343434" fill-opacity="0.07"/>
<path d="M2636.11 236.941C2613.52 245.056 2592.77 244.274 2564.08 243.206C2555.93 242.903 2547.5 242.583 2538.06 242.423C2531.06 241.65 2524.5 240.937 2518.33 240.276C2464.62 234.505 2440.11 231.866 2430.27 213.989C2422.29 200.978 2397.99 161.35 2398.27 144.257C2395.51 127.036 2394.04 106.83 2407.03 103.339C2417.89 100.531 2433.45 100.428 2449.92 100.321C2473.15 100.167 2499.47 99.9922 2519.28 92.252C2523.05 90.7643 2527.53 88.9172 2532.71 86.7754C2553.96 78.008 2586.07 64.7636 2617.17 56.682C2654.39 47.018 2681.18 47.2046 2696.82 57.2545C2720.35 74.5272 2734 101.319 2733.37 128.943C2732.67 159.572 2714.76 188.097 2682.94 209.274C2665.03 223.349 2650.21 231.871 2636.11 236.935L2636.11 236.941ZM2406.32 104.527C2395.04 108.579 2396.56 127.744 2399.19 144.15L2399.2 144.234C2398.88 161.038 2423.11 200.541 2431.07 213.529C2440.69 231.002 2465.05 233.623 2518.43 239.361C2524.61 240.022 2531.16 240.726 2538.12 241.502C2547.53 241.659 2555.96 241.977 2564.12 242.286C2610.48 244.023 2636.02 244.984 2682.4 208.539C2713.99 187.517 2731.75 159.252 2732.44 128.936C2733.08 101.614 2719.56 75.1108 2696.3 58.0313C2680.92 48.1491 2654.36 47.9976 2617.41 57.5956C2586.37 65.6629 2554.3 78.8936 2533.07 87.6455C2527.88 89.7831 2523.4 91.6365 2519.63 93.1289C2499.65 100.929 2473.24 101.102 2449.93 101.259C2433.52 101.367 2418.02 101.471 2407.27 104.246C2406.94 104.333 2406.63 104.433 2406.32 104.542L2406.32 104.527Z" fill="#343434" fill-opacity="0.07"/>
<path d="M2617.79 227.157C2604.64 231.877 2589.81 235.44 2573.06 237.924C2512.68 243.485 2482.02 237.806 2470.52 218.935C2464.97 210.377 2452.11 194.762 2440.75 180.984C2431.76 170.078 2423.27 159.771 2419.43 154.234C2415.57 149.74 2411.72 142.896 2409.18 135.959C2406.38 128.365 2405.56 121.956 2406.88 117.922C2407.69 115.428 2409.28 113.886 2411.62 113.335C2422.06 110.946 2440.51 111.853 2460.04 112.814C2483.25 113.957 2507.26 115.137 2521.65 111.173C2529.47 108.983 2541.28 103.998 2554.97 98.2132C2588.94 83.8698 2635.47 64.2176 2659.4 71.9235C2681.57 80.7885 2698.49 98.7274 2703.6 118.755C2707.89 135.579 2703.55 152.467 2691.05 167.587C2677.9 187.867 2663.87 202.347 2646.92 213.113C2638.27 218.606 2628.6 223.274 2617.79 227.157ZM2411.13 114.314C2409.45 114.919 2408.27 116.212 2407.64 118.174C2404.96 126.411 2412.24 144.619 2420.07 153.745C2423.91 159.287 2432.4 169.577 2441.37 180.472C2452.74 194.267 2465.62 209.899 2471.21 218.501C2482.54 237.081 2512.96 242.649 2572.97 237.12C2603.38 232.611 2627.44 224.533 2646.5 212.429C2663.35 201.727 2677.3 187.326 2690.41 167.102C2702.77 152.148 2707.06 135.51 2702.83 118.944C2697.79 99.1591 2681.05 81.4281 2659.14 72.6707C2635.52 65.0626 2589.15 84.649 2555.29 98.9471C2541.58 104.734 2529.74 109.742 2521.87 111.935C2507.35 115.932 2483.28 114.751 2460.01 113.603C2440.53 112.646 2422.13 111.739 2411.8 114.104C2411.57 114.156 2411.35 114.221 2411.14 114.297L2411.13 114.314Z" fill="#343434" fill-opacity="0.07"/>
<path d="M2613 231.735C2611.36 232.325 2609.69 232.886 2608.03 233.42C2580.87 242.107 2558.31 244.912 2540.98 241.765C2527.37 239.298 2517.21 233.273 2510.78 223.881C2500.25 208.491 2458.29 172.735 2440.64 164.101C2434.05 160.887 2426.97 154.192 2421.19 145.738C2415.96 138.094 2412.93 130.546 2413.47 126.516C2413.71 124.724 2414.66 123.622 2416.19 123.332C2426.92 121.298 2452.76 124.059 2477.75 126.723C2497.12 128.79 2515.42 130.738 2524.02 130.099C2533.77 129.369 2551.26 119.906 2569.78 109.888C2588.86 99.5681 2608.59 88.8989 2621.92 86.6296C2635.87 84.2602 2653.61 86.6905 2668.23 92.9784C2685.3 100.326 2696.28 111.944 2699.12 125.698C2702.45 141.79 2695.09 163.537 2679.45 183.865C2662.9 205.374 2639.45 222.231 2613 231.728L2613 231.735ZM2415.85 124.131C2414.88 124.479 2414.32 125.297 2414.14 126.614C2413.09 134.42 2426.45 156.421 2440.93 163.499C2458.66 172.159 2500.77 208.052 2511.34 223.502C2517.66 232.747 2527.67 238.672 2541.1 241.105C2558.32 244.233 2580.77 241.432 2607.82 232.782C2636.17 223.718 2661.42 206.201 2678.92 183.466C2694.21 163.588 2701.7 141.511 2698.46 125.848C2695.66 112.316 2684.84 100.868 2667.97 93.6122C2653.47 87.3751 2635.87 84.9587 2622.04 87.3123C2608.82 89.5642 2589.14 100.2 2570.1 110.498C2551.52 120.547 2533.97 130.046 2524.07 130.785C2515.41 131.432 2497.08 129.481 2477.68 127.41C2452.74 124.751 2426.95 122 2416.32 124.013C2416.15 124.044 2416 124.084 2415.85 124.137L2415.85 124.131Z" fill="#343434" fill-opacity="0.07"/>
</g>
<defs>
<clipPath id="clip0_8_2">
<rect width="2600" height="1300" fill="white" transform="matrix(-1 0 0 -1 2600 1300)"/>
</clipPath>
</defs>
</svg>
