<svg width="400" height="152" viewBox="0 0 400 152" fill="none" xmlns="http://www.w3.org/2000/svg">
<path d="M120.034 109.683C119.834 126.612 124.017 139.152 124.017 139.152C124.017 139.152 129.789 139.348 132.379 139.348C134.964 139.348 136.162 136.963 136.162 134.377C136.162 131.787 136.753 106.706 136.958 90.9747C137.149 75.2524 135.365 46.5889 135.165 44.8C134.964 43.0065 133.176 42.0097 131.578 42.21C129.989 42.4102 121.231 43.6028 118.842 43.9989C116.452 44.3949 116.648 42.8017 116.452 39.0191C116.256 35.241 117.048 35.241 117.845 35.241H173.583C173.583 35.241 171.198 74.4558 171.393 91.9716C171.594 109.487 172.586 131.587 172.586 134.769C172.586 137.955 174.175 138.155 175.372 138.155C176.569 138.155 183.137 138.36 185.322 138.36C187.516 138.36 187.316 137.955 188.108 133.977C188.909 129.994 190.302 110.088 190.302 82.4171C190.302 54.746 188.108 35.2364 188.108 35.2364H244.056C246.045 35.2364 246.432 34.8358 246.637 38.8188C246.837 42.7972 245.435 42.7972 243.651 42.6014C241.866 42.4057 230.118 42.0051 228.129 41.8048C226.139 41.6046 225.935 42.6014 225.935 43.794C225.935 44.9912 224.742 70.0723 224.742 71.8612C224.742 73.6592 226.144 74.8472 228.52 73.0583C230.91 71.2649 239.868 63.5038 261.166 63.5038C282.274 63.5038 307.35 75.4481 307.35 103.115C307.35 138.556 281.076 148.902 256.196 148.902C241.466 148.902 231.11 140.741 228.72 139.544C226.34 138.356 226.144 138.738 226.144 140.14C226.144 141.533 225.539 145.916 225.539 145.916H84.4017C84.4017 145.916 84.8023 145.115 84.8023 143.335C84.8023 141.533 83.596 137.063 79.8225 141.533C76.6361 145.32 65.4885 151.884 43.9943 151.884C22.4956 151.884 0 139.343 0 108.886C0 78.4341 30.0609 65.6933 48.173 65.6933C66.2851 65.6933 77.633 72.6578 80.6191 74.2555C83.6006 75.8441 84.602 75.4481 84.602 73.8549C84.602 72.2617 84.998 69.872 84.998 69.872H122.424C122.424 69.872 120.234 92.7681 120.034 109.683ZM62.1109 75.8441C53.3485 75.8441 40.2117 83.8054 40.808 107.098C41.4088 130.381 49.5659 140.34 60.9138 140.34C72.2617 140.34 84.602 131.983 83.8054 105.509C83.0134 79.0259 69.0754 75.8441 62.1109 75.8441ZM225.343 105.304C225.343 124.049 232.107 137.955 245.849 138.36C259.582 138.756 268.34 126.616 268.34 103.916C268.34 81.8208 257.807 74.0597 246.045 74.0597C234.301 74.0552 225.343 85.6034 225.343 105.304ZM374.236 143.722C375.429 143.722 375.834 143.527 375.834 139.739C375.834 135.961 375.834 134.568 373.644 134.96C371.455 135.36 361.7 136.558 359.515 136.954C357.326 137.35 355.537 135.356 355.537 129.989C355.537 124.613 355.132 103.511 355.537 94.9531C355.933 86.3955 356.921 70.6686 357.326 69.476C357.726 68.2788 358.318 67.2865 355.141 67.2865H302.188C301.387 67.2865 301.587 67.2865 301.587 71.2649C301.587 75.2478 300.791 77.0367 303.781 76.6361C306.763 76.2447 313.136 75.0475 315.325 74.6515C317.51 74.2555 319.499 75.6484 319.499 77.8333C319.499 80.0182 319.108 130.786 319.108 133.171C319.108 135.561 318.507 136.954 316.313 137.149C314.128 137.35 304.574 135.356 303.577 135.156C302.584 134.955 301.979 135.756 301.783 139.935C301.583 144.118 301.583 143.918 302.584 143.918C303.568 143.923 374.236 143.722 374.236 143.722Z" fill="#ABAFA9"/>
<path d="M359.92 44.3903L367.668 12.1445C367.668 12.1445 359.11 26.8791 347.762 26.8791C336.414 26.8791 328.844 15.9317 327.852 0C327.06 16.1275 320.091 27.0748 308.343 27.0748C296.599 27.0748 288.437 12.3448 288.437 12.3448L296.594 44.3903H359.92ZM298.624 52.3562L299.985 57.732H356.716L358.013 52.3562H298.624Z" fill="#ABAFA9"/>
<path d="M387.186 65.4794C389.344 65.4794 391.447 66.0575 393.495 67.2046C395.539 68.3562 397.132 69.9994 398.284 72.1388C399.422 74.2828 400 76.5132 400 78.8302C400 81.1334 399.436 83.3411 398.311 85.4623C397.182 87.588 395.598 89.2404 393.568 90.4057C391.638 91.5515 389.436 92.1597 387.191 92.1673C384.979 92.1673 382.853 91.5801 380.814 90.4057C378.789 89.2466 377.14 87.5309 376.061 85.4623C374.954 83.4268 374.372 81.1473 374.368 78.8302C374.368 76.5132 374.942 74.2828 376.093 72.1388C377.181 70.0624 378.849 68.3478 380.896 67.2046C382.807 66.0916 384.975 65.4969 387.186 65.4794ZM387.186 67.6734C385.34 67.6868 383.53 68.186 381.938 69.1209C380.226 70.0814 378.888 71.456 377.919 73.2449C376.971 74.9456 376.471 76.8597 376.467 78.8067C376.463 80.7538 376.955 82.6698 377.896 84.3744C378.838 86.136 380.172 87.5152 381.87 88.4984C383.572 89.4816 385.347 89.9778 387.186 89.9778C389.039 89.9778 390.823 89.4816 392.526 88.4984C394.228 87.5152 395.544 86.1314 396.486 84.3744C397.409 82.6736 397.894 80.7698 397.897 78.8347C397.897 76.9047 397.419 75.043 396.468 73.2449C395.559 71.5103 394.166 70.0774 392.457 69.1209C390.856 68.1883 389.039 67.6894 387.186 67.6734ZM381.533 71.8293H386.303C387.942 71.8293 389.116 71.9659 389.836 72.2344C390.553 72.4934 391.166 72.9813 391.579 73.6228C392.072 74.3597 392.296 75.2438 392.214 76.1267C392.132 77.0095 391.749 77.8372 391.128 78.4706C390.378 79.2678 389.345 79.7386 388.251 79.7815C388.684 79.9642 389.08 80.2232 389.421 80.5462C389.972 81.1152 390.655 82.0711 391.456 83.4048L393.14 86.2225H390.45L389.203 83.9556C388.238 82.1667 387.464 81.056 386.881 80.6009C386.463 80.2731 385.866 80.1092 385.083 80.1092H383.772V86.227H381.533V71.8293ZM383.777 78.1383H386.535C387.842 78.1383 388.739 77.938 389.226 77.5329C389.459 77.3398 389.645 77.0958 389.768 76.8195C389.892 76.5433 389.951 76.2423 389.94 75.9397C389.943 75.5275 389.819 75.1245 389.584 74.7856C389.35 74.4467 389.016 74.1885 388.629 74.0461C388.22 73.8822 387.459 73.7957 386.344 73.7957H383.777V78.1383Z" fill="#ABAFA9"/>
</svg>
