<svg width="400" height="294" viewBox="0 0 400 294" fill="none" xmlns="http://www.w3.org/2000/svg">
<path d="M360.101 0.15689C344.784 1.37413 339.882 6.07405 338.462 20.9515C338.259 23.3522 338.123 47.3589 338.123 88.8467V152.989L348.876 152.921L359.594 152.82L359.696 140.14C359.729 133.175 359.797 125.668 359.865 123.47L359.932 119.447L368.96 119.413L378.022 119.345V152.989H400V88.6438C400 23.9946 399.966 21.4587 398.783 15.7106C396.889 6.4798 391.547 1.81369 381.572 0.630261C380.456 0.528824 379.239 0.359762 378.867 0.292137C377.244 -0.0121738 363.652 -0.113609 360.101 0.15689ZM374.539 20.5457C375.858 21.222 376.872 22.5068 377.413 24.1298C377.718 25.0428 377.853 34.4088 377.954 63.2845L378.056 101.256H359.763L359.831 62.7773C359.932 25.1104 359.932 24.2989 360.609 23.014C361.386 21.4587 362.57 20.5119 364.193 20.0724C366.12 19.599 373.288 19.9033 374.539 20.5457ZM0 152.989H18.8673C38.4784 152.989 43.8884 152.718 48.656 151.602C55.5875 149.979 59.4421 146.497 61.3356 140.14C62.8571 135.102 62.9924 132.938 63.0938 109.371C63.1953 86.2431 63.06 82.5576 61.8766 77.7562C60.2536 71.2981 56.7709 67.4096 51.1243 65.719C50.3466 65.4823 49.738 65.178 49.7718 65.009C49.8394 64.8399 50.8876 64.3665 52.071 63.9608C57.3795 62.1687 60.7608 58.0098 62.4176 51.2135C62.9248 49.0833 63.0262 47.0546 63.0938 38.1958C63.1953 20.4443 62.1809 13.7833 58.6982 9.01572C55.9594 5.33018 52.1724 3.57194 44.2942 2.35469C43.4489 2.21944 33.1361 2.05038 21.4032 1.94894L0 1.81369V152.989ZM35.8411 21.4925C37.9374 21.932 39.2899 23.0478 40.1014 24.9075C40.6086 26.1924 40.7101 27.7816 40.8453 37.3505C41.0144 51.9236 40.6424 53.8847 37.3626 55.6091C35.8073 56.3868 35.3677 56.4544 29.011 56.5559L22.3161 56.6911V21.1205H28.2333C31.4455 21.1205 34.8943 21.2896 35.8411 21.4925ZM37.7684 75.0174C39.1209 75.8289 40.0676 77.5871 40.541 79.954C40.9806 82.3547 41.0144 123.065 40.6086 126.852C40.1691 130.537 39.3576 132.093 37.3288 133.073C35.8749 133.749 35.131 133.851 29.0448 133.986L22.3161 134.155V74.1721L29.5182 74.2735C35.8411 74.375 36.8216 74.4426 37.7684 75.0174ZM111.919 65.6514C111.919 109.912 112.02 130.639 112.291 133.344C112.73 137.942 113.914 142.946 115.199 145.55C116.314 147.849 119.019 150.622 121.319 151.771C123.449 152.853 127.101 153.868 130.685 154.341C134.235 154.815 146.509 155.017 151.648 154.645C164.835 153.766 170.245 150.182 172.578 140.816C173.931 135.339 173.897 136.184 174.032 68.0183L174.167 1.84751H152.494L152.325 130.165L151.513 131.788C150.228 134.426 148.943 134.899 143.364 134.899C139.273 134.899 138.664 134.831 137.38 134.121C135.418 133.107 134.641 131.484 134.235 127.562C134.032 125.634 133.897 100.647 133.897 63.1155V1.84751H111.919V65.6514ZM263.33 8.50854C249.535 51.1797 246.965 58.9904 246.593 58.9904C246.255 58.9904 246.154 53.0732 246.154 30.588V2.18563H223.838V152.989H246.154V113.225C246.154 82.7942 246.255 73.4959 246.56 73.5973C246.999 73.7664 246.323 71.1966 264.615 140.985C266.205 146.936 267.557 152.076 267.658 152.38C267.828 152.955 268.707 152.989 279.865 152.989C289.332 152.989 291.834 152.887 291.699 152.549C291.631 152.346 289.095 143.623 286.052 133.208C283.043 122.794 277.329 103.115 273.373 89.4553L266.171 64.6032L275.976 37.3843C281.352 22.4054 286.424 8.27185 287.236 5.97261L288.724 1.84751H265.495L263.33 8.50854ZM271.851 193.935C270.262 194.307 266.543 194.95 263.567 195.389C258.292 196.133 258.157 196.167 258.056 196.979C257.954 197.824 257.954 197.824 260.93 197.925C262.857 197.959 264.176 198.162 264.683 198.5C266.205 199.514 265.968 200.698 257.346 231.366C252.882 247.19 249.062 261.019 248.893 262.067C248.081 266.395 248.825 268.931 251.259 270.284C252.409 270.926 253.018 271.061 254.877 270.926C259.273 270.689 262.654 268.187 267.557 261.594C270.904 257.097 270.938 257.029 270.161 256.522C269.62 256.184 269.349 256.387 268.098 258.077C264.074 263.454 260.964 266.26 259.036 266.26C257.65 266.26 256.839 265.009 257.041 263.285C257.143 262.608 261.403 246.886 266.543 228.39C271.648 209.895 275.909 194.443 275.976 194.071C276.112 193.158 275.368 193.124 271.851 193.935ZM71.3102 197.046C68.0642 199.244 67.4894 203.335 70.0254 206.243C73.5418 210.233 79.459 207.224 79.0532 201.645C78.7489 197.384 74.5224 194.882 71.3102 197.046ZM72.1217 220.782C70.0254 221.222 66.5427 221.831 64.3449 222.135C57.8529 222.98 58.1572 222.913 58.1572 223.893C58.1572 224.738 58.191 224.738 60.0507 224.502C62.5528 224.197 65.1902 224.603 65.9679 225.381C66.4074 225.82 66.6103 226.497 66.6103 227.613C66.6103 228.965 60.9298 250.233 53.3897 276.979C50.3804 287.731 47.6078 291.585 43.415 290.774C41.8597 290.503 41.6568 289.861 42.5697 288.035C43.6517 285.804 43.5165 284.35 42.1302 282.963C41.0144 281.847 40.1014 281.577 38.0389 281.814C36.8555 281.949 35.6044 282.896 34.8605 284.181C32.0203 289.252 38.4108 294.358 45.8157 293.006C52.3077 291.788 57.4134 286.615 61.2003 277.283C62.2147 274.815 75.9763 227.477 77.5993 220.85C77.836 220.005 77.7684 219.937 76.8893 219.971C76.3483 219.971 74.2181 220.343 72.1217 220.782ZM137.785 220.782C136.128 221.222 133.018 221.932 130.955 222.372C127.811 222.98 127.134 223.251 127.134 223.724C127.134 224.231 127.439 224.333 129.332 224.333C134.37 224.333 135.418 225.922 136.771 235.626C137.65 241.847 139.273 264.13 139.307 270.385C139.307 270.757 139.577 270.994 139.949 270.994C140.659 270.994 140.659 270.994 154.556 248.204L163.821 233.022L164.057 234.341C164.193 235.051 165.004 243.335 165.883 252.735C166.762 262.135 167.608 270.148 167.743 270.554C167.912 270.994 168.216 271.332 168.419 271.332C169.941 271.332 185.461 252.126 191.851 242.355C194.522 238.263 196.72 234.037 197.633 231.264C198.512 228.661 198.546 224.603 197.701 223.082C196.822 221.425 194.996 220.208 193.102 220.005C190.972 219.802 189.653 220.512 188.876 222.27C187.895 224.434 188.335 225.685 190.938 228.323L193.136 230.554L193.001 232.752C192.764 236.809 189.856 241.678 180.355 253.749C174.844 260.782 174.641 260.985 174.404 260.005C174.269 259.43 173.39 250.402 172.409 239.886C170.719 221.087 170.482 219.43 169.467 220.072C169.265 220.174 164.294 227.917 158.411 237.283C152.494 246.615 147.489 254.459 147.253 254.696C146.948 255.034 146.746 253.614 146.272 248.441C144.751 231.163 142.756 219.836 141.2 219.971C140.997 219.971 139.476 220.343 137.785 220.782ZM287.067 221.56C279.256 223.115 279.121 223.183 279.019 224.028L278.918 224.874L280.981 224.637C283.246 224.367 285.207 224.705 285.985 225.482C286.796 226.294 286.83 228.965 286.12 232.279C285.613 234.51 278.276 261.56 276.044 269.405C275.875 269.946 276.145 269.979 279.966 269.912L284.057 269.81L287.236 260.343C288.96 255.136 290.921 249.591 291.631 248.001C295.655 238.669 302.181 228.525 304.954 227.376C306.171 226.869 306.61 227.105 308.098 229.066C309.451 230.858 311.04 231.535 312.899 231.095C315.638 230.487 316.957 228.728 316.957 225.685C316.991 220.749 312.629 218.686 307.76 221.29C303.736 223.42 297.751 230.858 293.119 239.379C292.172 241.171 291.327 242.558 291.26 242.524C291.192 242.456 292.375 237.756 293.863 232.11C295.351 226.429 296.5 221.425 296.467 220.951C296.399 220.377 296.128 220.072 295.689 220.039C295.317 220.005 291.429 220.681 287.067 221.56ZM331.868 220.782C319.087 223.183 319.865 223.014 319.865 223.893C319.865 224.705 319.899 224.705 322.198 224.468C326.458 224.062 329.062 225.55 331.09 229.54C332.68 232.718 334.81 239.548 337.244 249.354C340.017 260.647 340.862 264.705 341.065 268.12C341.234 270.453 341.133 271.061 340.49 272.481C338.732 276.201 332.443 283.842 329.467 285.905C327.067 287.562 326.188 287.528 323.449 285.736C321.555 284.485 320.845 284.181 319.628 284.181C317.532 284.181 316.348 284.891 315.672 286.615C314.624 289.151 315.672 291.45 318.309 292.667C322.265 294.459 326.627 292.329 333.39 285.33C343.026 275.356 356.923 253.377 362.975 238.534C366.796 229.202 366.999 223.352 363.55 221.053C361.15 219.464 357.565 219.768 356.382 221.729C354.759 224.333 356.044 227.274 359.527 229.1C363.009 230.926 362.299 235.525 356.889 246.142C354.353 251.18 348.233 261.864 347.895 261.864C347.794 261.864 347.422 260.241 347.117 258.213C345.731 249.658 344.784 245.093 343.195 239.548C340.423 229.675 337.177 220.749 336.196 220.174C336.027 220.106 334.1 220.377 331.868 220.782ZM108.842 220.782C103.432 222 97.9205 225.212 92.8487 230.081C87.0668 235.66 83.6855 240.63 81.5216 246.75C80.3719 250.098 80.3043 250.334 80.3043 255.102C80.3043 259.43 80.4057 260.241 81.1158 261.966C82.5697 265.651 85.8495 268.931 89.5013 270.351C92.2401 271.399 97.1428 271.433 100.862 270.385C105.833 268.965 111.412 265.618 115.841 261.391C118.073 259.261 118.107 259.159 117.532 258.517C116.957 257.875 116.889 257.908 113.407 260.546C107.625 264.908 103.872 266.463 99.6112 266.192C96.3652 265.956 94.0321 264.908 92.1386 262.811C89.6365 260.005 88.9603 255.846 90.2113 251.078L90.7861 248.88L94.6746 248.339C106.982 246.547 118.309 240.292 121.522 233.496C122.671 230.994 123.111 227.308 122.434 225.279C121.927 223.724 120.203 222 118.343 221.188C116.382 220.309 111.851 220.106 108.842 220.782ZM114.184 223.724C116.653 226.023 115.672 231.399 111.986 236.066C109.146 239.616 103.567 243.335 98.732 244.924C96.3314 245.702 91.9019 246.683 91.6991 246.514C91.4624 246.277 94.6746 238.872 96.0609 236.438C96.8047 235.085 98.0896 233.056 98.9011 231.94C100.761 229.303 105.63 224.671 107.354 223.826C110.127 222.507 112.832 222.473 114.184 223.724ZM229.248 220.782C226.576 221.323 224.886 221.932 222.451 223.149C216.196 226.328 209.467 232.718 205.106 239.684C198.884 249.591 198.614 261.019 204.497 266.902C208.926 271.332 215.046 272.38 222.316 269.946C227.32 268.289 232.697 264.806 236.653 260.749L238.478 258.855L237.633 258.449C236.822 258.111 236.551 258.213 234.421 259.937C229.112 264.197 225.63 265.888 221.471 266.159C216.602 266.497 212.68 264.468 210.786 260.647C209.975 258.957 209.839 258.382 209.873 255.643C209.907 251.653 210.752 248.88 212.003 248.745C222.891 247.596 233.779 242.963 239.155 237.215C242.164 234.003 243.652 229.506 242.773 226.091C241.893 222.507 238.918 220.546 234.15 220.377C232.663 220.343 230.465 220.512 229.248 220.782ZM234.049 223.352C236.044 224.434 236.213 229.066 234.353 232.684C233.204 234.984 229.755 238.872 227.253 240.698C225.055 242.321 220.727 244.417 217.921 245.229C215.046 246.074 212.24 246.649 212.037 246.48C211.8 246.209 213.39 242.186 215.046 238.804C219.07 230.622 224.818 224.4 229.552 223.082C231.107 222.676 232.967 222.777 234.049 223.352Z" fill="#ABAFA9"/>
</svg>
