<svg width="400" height="100" viewBox="0 0 400 100" fill="none" xmlns="http://www.w3.org/2000/svg">
<path fill-rule="evenodd" clip-rule="evenodd" d="M157.264 58.9383C156.461 66.2327 154.01 72.025 149.877 76.3016C145.757 80.5827 140.595 82.7289 134.373 82.7289C126.789 82.7289 120.749 79.6654 116.283 73.5545C111.818 67.4458 109.592 59.1909 109.592 48.7761C109.592 38.3454 111.818 30.0586 116.283 23.9363C120.749 17.8117 126.789 14.7505 134.373 14.7505C140.625 14.7505 145.803 16.8216 149.92 20.9502C154.053 25.0765 156.49 30.6754 157.264 37.7468H146.046C145.666 34.2031 144.428 31.3969 142.323 29.3258C140.217 27.2706 137.568 26.235 134.375 26.235C130.242 26.235 126.942 28.2606 124.488 32.33C122.037 36.3812 120.81 41.8754 120.81 48.7807C120.81 55.6723 122.037 61.1346 124.475 65.1858C126.912 69.2256 130.212 71.2535 134.375 71.2535C137.539 71.2535 140.174 70.1428 142.277 67.9329C144.382 65.7138 145.639 62.7277 146.046 58.9451H157.264V58.9383ZM179.824 82.3397C173.617 82.3397 168.681 80.0728 165.034 75.5391C161.386 71.0236 159.554 64.8967 159.554 57.1858C159.554 49.4384 161.386 43.3001 165.034 38.7528C168.683 34.2054 173.617 31.9386 179.824 31.9386C186.062 31.9386 190.996 34.2054 194.645 38.7528C198.277 43.3024 200.096 49.4384 200.096 57.1858C200.096 64.899 198.277 71.0236 194.645 75.5391C190.996 80.0728 186.062 82.3397 179.824 82.3397ZM179.824 71.7861C182.928 71.7861 185.29 70.5411 186.895 68.0649C188.513 65.5886 189.317 61.9516 189.317 57.1835C189.317 52.3789 188.513 48.7169 186.895 46.2248C185.29 43.7326 182.928 42.4876 179.824 42.4876C176.721 42.4876 174.359 43.7326 172.754 46.2248C171.136 48.7169 170.333 52.3789 170.333 57.1835C170.333 61.9539 171.136 65.5886 172.754 68.0649C174.359 70.5411 176.721 71.7861 179.824 71.7861ZM204.206 81.0629V33.2108H214.088V41.1653C214.621 39.8452 215.24 38.6299 215.95 37.5192C218.342 33.7957 221.551 31.934 225.595 31.934C229.317 31.934 232.284 33.1949 234.513 35.7166C235.523 36.8877 236.316 38.2295 236.855 39.6791L238.05 37.5169C240.382 33.7935 243.53 31.9317 247.47 31.9317C251.587 31.9317 254.885 33.3132 257.338 36.0899C259.805 38.8506 261.032 42.5741 261.032 47.2398V81.0583H250.617V49.9619C250.617 47.5607 250.133 45.715 249.163 44.4245C248.212 43.134 246.817 42.4876 245.003 42.4876C242.686 42.4876 240.913 43.3411 239.672 45.039C238.446 46.7368 237.824 49.1972 237.824 52.4245V81.0629H227.409V50.804C227.409 48.1001 226.881 46.045 225.823 44.6202C224.76 43.1955 223.217 42.4899 221.219 42.4899C219.084 42.4899 217.468 43.3434 216.33 45.0413C215.197 46.7391 214.623 49.1994 214.623 52.4268V81.0652L204.206 81.0629ZM267.291 33.2108H277.178V40.2504L278.054 38.8393C280.931 34.2327 284.82 31.934 289.727 31.934C294.662 31.934 298.57 34.2009 301.444 38.7482C304.303 43.2979 305.743 49.4339 305.743 57.1812C305.743 64.8945 304.303 71.0054 301.415 75.5346C298.538 80.0683 294.618 82.3351 289.68 82.3351C284.807 82.3351 280.931 80.1001 278.056 75.6097L277.71 75.0407V99.7918H267.296V33.2108H267.291ZM286.184 72.0842C289.104 72.0842 291.332 70.8393 292.83 68.3494C294.345 65.8549 295.101 62.2248 295.101 57.4361C295.101 52.6339 294.345 48.9718 292.83 46.4637C291.332 43.9579 289.118 42.7129 286.229 42.7129C283.323 42.7129 281.127 43.9579 279.629 46.4501C278.131 48.9423 277.389 52.5883 277.389 57.3929C277.389 62.2111 278.131 65.8572 279.629 68.3494C281.124 70.8393 283.307 72.0842 286.184 72.0842ZM305.869 81.0629L324.898 16.4165H337.723L356.704 81.0629H344.733L341.221 67.9579H321.147L317.51 81.0629H305.869ZM331.334 30.9758L324.292 56.4757H338.251L331.316 30.9735L331.334 30.9758ZM359.756 81.0629V33.2108H370.171V81.0629H359.756ZM359.802 15.802H370.096V27.4936H359.802V15.802ZM376.942 81.0629V33.2108H386.966V41.6159L388.327 38.705C390.5 34.0575 393.914 31.934 397.79 31.934C398.578 31.934 399.319 31.9955 400 32.1161V44.9184C399.035 44.7615 398.058 44.6854 397.08 44.6908C393.796 44.6908 391.349 45.6489 389.749 47.5744C388.158 49.4908 387.357 52.4085 387.357 56.3414V81.0606L376.942 81.0629ZM51.3889 2.10982L51.357 46.8984C51.5528 51.1226 54.334 54.2475 58.8654 56.6669L95.4834 77.4441L95.4993 82.2623L91.7348 84.6179L53.74 62.7869C49.402 60.6225 45.064 60.9548 40.7238 64.0319C28.511 70.9622 16.2959 77.8879 4.0808 84.8137L0 82.2623L0.0159317 77.6535L38.8916 55.3468C42.0734 52.7795 43.6097 49.2541 43.4913 44.3721V2.36245L47.3673 0L51.3889 2.10982ZM61.6694 7.51523L62.0404 42.0165C62.3477 45.4714 64.5644 48.3391 68.7772 50.6287L95.4401 65.3747L95.4765 75.5369L61.2211 55.5881C59.332 54.375 56.7693 53.1414 55.5653 51.4845C53.7491 48.9809 53.7491 45.6216 53.7104 40.7807V3.32974L61.6694 7.51523ZM71.7747 12.8296L72.0273 36.2515C72.3346 39.7041 74.5514 42.5741 78.7642 44.8637L95.4037 54.0632L95.4378 63.934L71.208 49.823C69.3189 48.61 66.7562 47.3764 65.5522 45.7195C63.736 43.2182 63.736 39.8566 63.6973 35.0179V8.58265L71.7747 12.8296ZM33.4088 8.51438L33.0401 42.6629C32.7306 46.1155 30.5161 48.9855 26.301 51.2728L0.0637266 65.7798L0.0273117 75.9329L33.8572 56.2322C35.7462 55.0236 38.3112 53.7878 39.5129 52.1286C41.3314 49.6273 41.3292 46.2657 41.3678 41.427V3.65747L33.4088 8.51438ZM23.0851 14.8074L22.8484 36.7795C22.5411 40.2322 20.3243 43.1021 16.1115 45.3918L0.104695 54.2407L0.0705551 64.091L23.67 50.3488C25.559 49.1357 28.1218 47.9021 29.3257 46.2452C31.1442 43.7417 31.142 40.3801 31.1807 35.5414V9.86856L23.0851 14.8074ZM6.06999 85.9539L13.7309 90.7198L44.1172 73.6091C47.2603 72.1457 50.8541 72.6304 54.9417 75.1386L81.2222 90.9679L86.0017 88.2071L89.8504 85.7969L55.4606 66.1144C53.4646 65.0834 51.1158 63.4834 49.0788 63.2649C46.0017 62.944 43.093 64.6259 38.8825 67.0111L6.06999 85.9539ZM23.522 96.9718L44.1172 85.3735C47.2603 83.9147 50.8541 84.3994 54.9417 86.903L71.8225 97.0697L80.025 91.9397L55.4606 77.8788C53.4669 76.8478 51.1158 75.2478 49.0788 75.0293C46.0017 74.7084 43.093 76.3903 38.8825 78.7755L15.7701 92.1195L23.522 96.9718Z" fill="#ABAFA9"/>
</svg>
