<svg width="400" height="120" viewBox="0 0 400 120" fill="none" xmlns="http://www.w3.org/2000/svg">
<path d="M271.833 7.08953H233.216L233.276 43.9295L178.621 78.0045L167.379 71.4316L222.034 37.0122L197.646 21.4457L142.642 55.8651L133.304 49.6365L187.786 15.3893L163.226 0L101.118 38.9014C92.3361 16.4865 69.7293 7.09445 42.0845 7.09445H0V113.359H51.6734C76.135 113.359 95.0272 100.695 102.048 80.1004L164.092 119.174L233.256 75.7217L233.221 113.354H305.981V79.2443H271.837L271.833 7.08953ZM43.777 81.5025H38.616V40.3528H43.777C57.8724 40.3528 66.4674 46.6945 66.4674 61.6361C66.4723 75.5839 56.6031 81.5025 43.777 81.5025ZM353.128 7.08953H314.512V113.359H387.272V79.2492H353.128V7.08953ZM381.998 6.43519H385.034V14.3267H386.244V6.43519H389.28V5.36266H381.998V6.43519ZM398.268 5.36266L395.72 12.9393H395.695L393.137 5.36266H391.4V14.3267H392.576V9.03288C392.576 8.77212 392.551 7.63563 392.551 6.8091H392.576L395.1 14.3267H396.3L398.824 6.79434H398.849C398.849 7.63071 398.824 8.7672 398.824 9.03288V14.3267H400V5.36266H398.268Z" fill="#ABAFA9"/>
</svg>
