<svg width="400" height="203" viewBox="0 0 400 203" fill="none" xmlns="http://www.w3.org/2000/svg">
<path fill-rule="evenodd" clip-rule="evenodd" d="M44.8703 104.271C44.8703 104.271 46.6524 100.627 45.6808 99.6231C44.7092 98.6165 41.2269 100.966 41.2269 100.966L28.1549 108.844C28.1549 108.844 25.6278 109.85 24.6866 109.554C23.7477 109.259 23.1522 107.776 23.1522 107.776L17.2152 105.78C17.2152 105.78 15.202 105.165 12.9996 103.808C10.7995 102.454 7.94316 97.6122 7.94316 97.6122C7.94316 97.6122 4.50525 91.1404 3.26975 87.9267C2.03192 84.713 0 78.33 0 78.33L0.773061 76.3331L2.36823 75.6114L10.9607 67.9952L14.2585 66.2132C14.2585 66.2132 15.8466 65.4518 16.7785 67.367C17.7127 69.2821 18.5208 69.4222 18.5208 69.4222C18.5208 69.4222 49.8707 54.7457 59.1942 50.0863C68.52 45.4269 93.5686 35.0338 97.8613 33.7189C102.149 32.4016 122.723 25.4954 122.723 25.4954L140.548 21.0603L148.575 19.6029C148.575 19.6029 154.241 20.8968 153.627 23.7882C153.013 26.6772 152.209 26.6562 152.209 26.6562L149.488 30.0521L148.295 30.3954L142.344 36.998L130.9 47.2276C130.9 47.2276 108.99 62.1937 106.019 63.8473C100.816 66.762 95.6161 69.6838 90.4203 72.6126L73.0977 100.492C73.0977 100.492 72.6796 102.718 74.8867 101.914C77.0914 101.111 101.864 90.393 101.864 90.393L118.979 83.4331L126.581 81.2727C126.581 81.2727 132.152 79.729 133.761 81.3615C135.372 82.9894 134.683 84.9886 134.036 85.9859C133.387 86.9855 121.049 98.2101 121.049 98.2101L95.5935 118.209C95.5935 118.209 66.7497 135.453 65.6519 136.44C64.5542 137.426 64.3791 138.811 63.5103 139.586C62.6391 140.36 52.4632 146.467 49.8941 148.95C47.3273 151.43 33.3398 199.927 33.3398 199.927C33.3398 199.927 32.9825 200.997 32.1954 201.511C31.4106 202.029 27.9634 202.347 27.9634 202.347C27.9634 202.347 23.4651 202.321 22.4258 201.84C21.3865 201.357 22.4025 201.126 22.1059 200.803C18.0397 199.748 10.1783 188.707 10.1783 188.707L8.20941 187.152C8.20941 187.152 7.8474 181.619 7.64188 179.767C7.43401 177.91 6.35733 173.741 6.35733 173.741L9.60373 171.658L20.6111 147.133L13.8451 134.203C13.8451 134.203 12.6726 131.737 13.1818 130.099C13.6933 128.467 15.3211 128.829 15.3211 128.829L20.6111 127.813L28.7645 125.249L33.9213 121.458L44.8703 104.271Z" fill="#ABAFA9"/>
<path fill-rule="evenodd" clip-rule="evenodd" d="M139.063 54.4771C139.063 54.4771 155.488 51.0813 157.801 50.3829C160.115 49.687 199.805 31.7126 199.805 31.7126L239.93 16.499C239.93 16.499 250.851 13.6239 253.196 13.0937C255.531 12.5636 267.059 11.3281 268.33 11.2183C269.607 11.1085 272.809 13.3787 272.809 13.3787L270.273 18.4328L267.267 22.186L265.338 27.0182L262.117 31.757L263.227 35.3771C263.227 35.3771 257.829 40.0902 255.101 42.5752C252.373 45.0602 252.89 44.3806 245.755 49.0867C238.62 53.7905 224.16 58.8656 222.453 60.7574C220.755 62.6468 206.931 103.344 206.931 103.344L192.378 152.231C192.378 152.231 192.427 154.798 187.133 155.779C181.838 156.764 179.449 154.214 179.449 154.214C179.449 154.214 172.921 146.301 171.34 144.479C169.759 142.655 163.973 136.004 163.973 136.004L163.023 133.407L166.059 130.006L167.423 126.145L182.646 89.4728C182.646 89.4728 186.019 82.8212 186.098 82.2093C186.177 81.5974 187.646 76.7488 184.234 78.1408C180.822 79.5281 164.781 89.4331 161.136 89.3047C157.488 89.1762 148.891 82.6063 148.891 82.6063L147.753 80.5861L147.076 70.8913L142.961 66.0754L139.74 60.685L138.005 56.5604L139.063 54.4771ZM249.305 86.9504C248.798 82.2934 249.998 78.4094 251.498 74.7356C254.134 68.2661 262.577 57.3615 262.577 57.3615C262.577 57.3615 271.221 45.3662 279.97 38.7193C291.265 30.1175 301.324 25.6613 301.324 25.6613C301.324 25.6613 306.425 24.0077 309.435 23.7578C312.451 23.5056 314.24 24.0731 316.064 25.5935C317.888 27.1093 319.987 31.7897 319.987 31.7897C319.987 31.7897 321.279 32.5067 321.055 35.0361C320.753 39.5647 299.351 74.1867 299.351 74.1867C299.351 74.1867 298.512 76.4242 300.336 77.6924C301.445 78.5075 305.888 77.0571 305.888 77.0571C305.888 77.0571 326.275 69.7772 330.635 67.4253C334.995 65.0735 352.435 54.3323 352.435 54.3323L358.809 49.8551C358.809 49.8551 360.574 48.288 360.1 44.9014C359.621 41.5149 359.57 35.9493 359.215 34.7769C358.851 33.6021 355.754 31.3973 355.754 31.3973C355.754 31.3973 341.29 24.1245 336.7 22.3261C332.116 20.5254 314.732 16.3682 312.105 15.9805C309.482 15.5904 306.444 16.193 305.271 16.0575C304.094 15.9221 302.279 13.9182 302.279 13.9182C302.279 13.9182 302.931 12.4772 302.84 10.9287C302.749 9.38024 300.495 6.31134 300.495 6.31134C300.495 6.31134 298.767 3.83101 298.662 3.1934C298.556 2.55113 299.596 0.13852 300.245 0.0310856C300.894 -0.0763491 313.962 0.129178 313.962 0.129178C313.962 0.129178 327.428 2.16343 332.412 3.39426C337.399 4.62508 349.287 8.23816 349.287 8.23816C349.287 8.23816 356.289 10.7979 363.72 14.2709C371.157 17.7508 379.266 22.2327 379.266 22.2327C379.266 22.2327 388.134 28.7045 391.088 31.5982C394.043 34.4919 397.492 37.4768 399.281 41.3C401.07 45.1303 399.038 53.6457 398.368 58.0458C397.698 62.4437 394.755 69.6861 393.61 72.2646C392.461 74.843 390.553 75.142 388.862 75.4222C387.174 75.7025 388.533 74.0676 385.789 75.9314C383.042 77.7928 352.657 95.3747 345.347 98.9551C338.034 102.538 321.881 109.955 315.085 111.868C308.289 113.788 292.003 118.852 287.862 119.277C283.716 119.699 280.213 119.228 276.112 118.324C272.011 117.425 267.569 114.472 260.826 108.741C254.071 103.017 249.814 91.6052 249.305 86.9504Z" fill="#ABAFA9"/>
</svg>
