<svg width="400" height="255" viewBox="0 0 400 255" fill="none" xmlns="http://www.w3.org/2000/svg">
<path fill-rule="evenodd" clip-rule="evenodd" d="M0 184.932H55.8659V159.196H28.9335V33.4829H0V184.932ZM69.4763 184.932H98.4077V33.4829H69.4763V184.932ZM126.101 184.932H155.509L155.129 128.208L208.136 224.411V33.4829H178.73L179.205 90.0071L126.101 0V184.932ZM234.404 184.932H293.692V159.399H263.239V117.695H289.696V93.7121H263.239V58.6113H292.647V33.4829H234.404V184.932ZM301.688 184.932H331.762L336.617 156.366H358.41L365.262 184.932H396.479L366.498 33.4829H323.768L301.688 184.932ZM337.282 133.596L347.561 60.6333L358.123 133.596H337.282ZM1.04976 253.785V237.749H5.42624L14.7522 248.462V237.749H19.0346V253.785H14.3716L5.23595 243.342V253.785H1.04976ZM69.3801 253.785V237.749H74.0431V253.785H69.3801ZM129.907 253.785L121.723 237.749H126.766L132.477 249.607L137.997 237.749H142.944L134.76 253.785H129.907ZM191.007 253.785V237.749H195.479L204.711 248.462V237.749H208.993V253.785H204.427L195.291 243.342V253.785H191.007ZM259.433 253.785V237.749H264.002V253.785H259.433ZM328.623 247.923L333.096 248.934C332.337 250.685 331.193 251.965 329.668 252.842C328.05 253.65 326.053 254.054 323.577 254.054C320.627 254.054 318.153 253.381 316.154 251.899C314.249 250.417 313.298 248.462 313.298 245.902C313.298 243.275 314.249 241.186 316.154 239.703C318.153 238.221 320.723 237.48 323.862 237.48C326.716 237.48 328.905 238.019 330.618 239.231C331.665 239.904 332.426 240.915 332.997 242.196L328.428 242.936C328.142 242.128 327.667 241.454 326.81 240.982C325.953 240.51 324.905 240.242 323.669 240.242C321.955 240.242 320.623 240.646 319.575 241.522C318.529 242.397 317.959 243.746 317.959 245.7C317.959 247.722 318.529 249.135 319.575 250.012C320.526 250.888 321.955 251.292 323.573 251.292C324.811 251.292 325.856 251.023 326.714 250.484C327.575 249.945 328.24 249.069 328.623 247.923ZM382.68 253.785V237.749H399.523V240.443H387.247V244.014H398.668V246.709H387.247V251.088H400V253.783L382.68 253.785Z" fill="#ABAFA9"/>
</svg>
