<svg width="400" height="94" viewBox="0 0 400 94" fill="none" xmlns="http://www.w3.org/2000/svg">
<path fill-rule="evenodd" clip-rule="evenodd" d="M0 39.8343H20.4406V44.5388H20.6136C24.2256 41.7461 30.1477 39.0878 37.0303 39.0878C45.1442 39.0878 50.8842 42.3857 50.8842 49.3024V69.982H30.3207V55.6706C30.3207 53.2535 29.1395 50.4085 26.3627 50.4085C22.8418 50.4085 21.0415 52.2748 21.0415 55.525V69.982H0V39.8343ZM76.4891 57.0544C76.4891 60.7597 78.1665 63.6093 82.1381 63.6093C84.9261 63.6093 85.9435 62.6716 87.3364 61.2172H106.899C103.416 67.7265 94.788 70.749 82.393 70.749C66.0537 70.749 55.7799 65.0545 55.7799 54.9992C55.7799 46.2276 65.3527 39.0901 80.9022 39.0901C99.4925 39.0901 107.87 45.3194 107.87 57.0567L76.4891 57.0544ZM87.8553 51.5215C87.8553 48.7311 86.9199 46.1274 82.4795 46.1274C77.8251 46.1274 76.5733 48.1348 76.5733 51.5215H87.8553ZM368.621 57.0544C368.621 60.7597 370.301 63.6093 374.275 63.6093C377.067 63.6093 378.075 62.6716 379.475 61.2172H399.04C395.546 67.7265 386.918 70.749 374.525 70.749C358.179 70.749 347.923 65.0545 347.923 54.9992C347.923 46.2276 357.494 39.0901 373.052 39.0901C391.615 39.0901 400 45.3194 400 57.0567L368.621 57.0544ZM380.001 51.5215C380.001 48.7311 379.059 46.1274 374.609 46.1274C369.959 46.1274 368.705 48.1348 368.705 51.5215H380.001ZM125.15 54.1366L110.922 39.8343H132.959L137.929 46.3391L143 39.8343H164.513L150.286 54.1366L166.345 69.9843H142.342L137.672 63.632L132.783 69.9843H109.357L125.15 54.1366ZM196.461 39.8343H203.78V51.1846H196.461V70.0139H175.54V51.1846H169.925V39.8343H175.54V30.6575H196.461V39.8343ZM319.897 83.4763H297.585L309.086 68.7484L290.744 39.8343H312.304L319.548 56.4308H319.726L327.048 39.8343H349.532L319.897 83.4763Z" fill="#ABAFA9"/>
<path fill-rule="evenodd" clip-rule="evenodd" d="M284.512 0C305.984 0 305.947 13.4192 305.984 14.803C306.25 33.193 268.034 47.3041 239.224 50.8979C239.224 50.8979 237.29 57.6689 237.29 64.5902C237.29 71.5115 240.26 85.9572 257.157 85.9572C274.054 85.9572 295.168 71.4387 329.242 32.3645L329.811 32.8766C329.811 32.8766 315.245 51.2234 296.729 67.1894C270.146 90.1086 253.108 93.543 238.99 93.543C224.854 93.543 205.717 84.2456 205.717 63.9074C205.715 33.3318 242.543 0 284.512 0ZM282.844 14.2454C285.47 -0.416499 273.282 -2.90188 261.254 9.95289C240.41 32.1938 239.645 49.2432 239.645 49.2432C263.188 46.3391 280.156 29.2191 282.844 14.2454Z" fill="#ABAFA9"/>
</svg>
