<svg width="400" height="146" viewBox="0 0 400 146" fill="none" xmlns="http://www.w3.org/2000/svg">
<path fill-rule="evenodd" clip-rule="evenodd" d="M176.627 86.0717C173.107 93.6548 164.442 97.988 151.176 97.988C148.739 97.988 146.031 97.7172 144.95 97.4464L155.239 75.514C157.674 74.9746 160.653 74.4307 164.442 74.4307C176.898 74.4329 180.146 78.2222 176.627 86.0717ZM177.711 125.606L161.466 100.696L161.734 100.425C176.627 99.8838 189.622 94.1987 193.412 85.5345C198.557 74.9746 190.164 68.4747 167.148 68.4747C156.318 68.4747 146.841 69.8289 140.073 71.7247L115.163 125.606H131.95L143.862 100.152H144.133L158.753 125.606H177.711ZM189.352 125.606L215.613 69.2872H232.946L206.68 125.606H189.352ZM286.822 97.1755C281.949 107.733 274.095 118.837 259.204 118.837C244.584 118.837 246.749 107.733 251.626 97.1755C256.769 86.6133 265.16 75.514 279.51 75.514C293.863 75.514 291.694 86.6156 286.822 97.1755ZM304.15 97.4464C311.462 81.4699 307.671 68.4747 282.762 68.4747C257.586 68.4747 241.61 81.4699 234.027 97.4464C226.719 113.423 230.506 126.416 255.688 126.416C280.595 126.416 296.572 113.423 304.15 97.4464ZM359.927 125.606L341.515 89.3216C339.892 86.0717 339.08 83.0948 339.08 83.0948H338.809C338.809 83.0948 337.724 86.3447 336.374 89.5924L319.585 125.606H304.965L331.231 69.285H347.473L364.804 103.673C365.79 105.489 366.605 107.392 367.239 109.358H367.51C367.51 109.358 368.318 106.652 369.674 103.402L385.651 69.285H400L373.739 125.606H359.927ZM7.13546 55.2088C5.78133 57.6462 7.94566 57.6462 8.21876 56.8338C31.503 20.2813 72.9281 -1.64883 97.5665 16.2212C115.166 28.6769 112.999 63.6021 92.6916 92.5715C71.8425 122.358 42.3338 133.457 23.3782 119.918C-5.86421 99.613 14.4432 53.8569 42.6001 30.5704C46.9333 27.052 44.4959 26.7789 41.7899 28.9477C1.44811 56.8338 -15.0655 115.587 16.6121 137.79C43.6857 156.739 83.488 138.061 107.314 103.946C133.036 67.3914 131.682 23.2604 109.751 7.82782C75.0947 -16.2689 29.3364 19.7396 7.13546 55.2088ZM154.424 41.1304H157.403L160.111 51.4195L172.296 41.1304H175.275L167.424 58.1879H163.903L168.778 47.6279C169.049 47.3571 169.32 46.8155 169.861 45.7322C169.049 46.5424 168.507 47.3548 167.965 47.6279L157.949 56.2921H157.137L155.241 47.6279C154.97 47.0863 154.97 46.5446 154.97 45.7322C154.699 46.5424 154.699 47.0863 154.429 47.6279L149.285 58.1879H146.306L154.424 41.1304ZM193.685 51.4172L200.724 44.378V51.4172H193.685ZM183.396 58.1879H187.187L190.708 54.6671H200.997L201.266 58.1879H205.33L204.245 41.1304H200.453L183.396 58.1879ZM226.987 58.1879H223.196L229.966 44.1072H222.383L224.011 41.1304H242.422L241.066 44.1072H233.753L226.987 58.1879ZM268.954 44.1072C270.31 44.1072 270.577 44.378 270.04 45.4613L269.227 47.6279C268.686 48.7113 267.871 48.9821 266.792 48.9821H258.396L260.565 44.1095L268.954 44.1072ZM250.272 58.1879H254.063L257.042 51.6903H260.563L264.084 58.1879H269.498L264.894 51.6903H267.058C269.498 51.6903 271.121 50.8779 272.206 48.4404L274.1 44.3803C275.185 41.9429 274.641 41.1304 272.206 41.1304H258.396L250.272 58.1879ZM291.428 55.2088L296.572 44.1095H308.756L303.884 55.2088H291.428ZM292.236 45.1905L288.178 54.1255C286.551 57.3731 287.093 58.1879 290.072 58.1879H301.984C304.963 58.1879 306.317 57.3754 307.939 54.1255L312.273 45.1905C313.625 41.9406 313.081 41.1304 310.104 41.1304H298.192C295.215 41.1304 293.863 41.9406 292.236 45.1905ZM332.851 49.5237L328.789 41.1304H333.663L336.101 47.0863L343.95 41.1304H348.284L337.455 48.9821L341.786 58.1879H336.643L333.937 51.6881L325.272 58.1879H320.939L332.851 49.5237Z" fill="#ABAFA9"/>
</svg>
