<svg width="400" height="179" viewBox="0 0 400 179" fill="none" xmlns="http://www.w3.org/2000/svg">
<path fill-rule="evenodd" clip-rule="evenodd" d="M127.549 170.763C123.827 170.089 121.968 166.278 119.177 164.079C105.48 149.428 92.2032 134.359 78.8437 119.459C78.1672 117.597 68.6967 118.783 74.0236 117.091C77.4059 116.921 73.9387 114.467 73.3471 113.366C64.0464 103.377 56.0137 92.2012 46.4608 82.4636L27.6047 83.2249C26.1669 89.1508 26.7585 95.586 26.5064 101.767C26.6761 109.552 25.8299 117.173 25.9997 125.046C26.8459 130.72 34.7912 127.42 37.4147 130.805C35.892 130.887 34.2021 131.399 32.7643 130.805H0.0419721C-0.379881 128.436 2.49321 130.043 3.50916 129.194C7.31333 128.518 15.5158 129.871 14.6696 123.86C15.0939 94.0608 17.3754 64.259 15.6006 34.3723C17.2082 27.9372 9.17547 29.4623 5.3713 28.6161C3.25704 29.1229 -2.3244 26.9212 3.34192 26.9212C23.9753 26.6666 45.6196 25.3112 65.911 30.4783C68.4471 31.1547 70.7311 32.3404 72.8429 33.9505C74.8723 34.8815 75.8857 38.2664 78.4218 37.8445C100.491 38.2689 122.389 38.8604 144.458 38.1016C147.246 37.6773 151.729 39.1999 153.25 36.237C152.743 33.7807 157.308 30.3959 156.295 34.884C155.786 39.5394 154.772 44.1124 154.181 48.7678C153.167 50.3778 154.603 56.9802 150.968 53.6777L150.292 46.0569C142.259 41.4015 132.452 42.4175 123.657 40.8948C119.007 40.6402 114.357 40.4705 109.706 40.4705C106.576 39.7091 106.831 43.8553 106.661 45.8048L105.563 72.4739C105.732 76.4528 111.059 74.8453 113.426 75.2671C121.965 75.4369 130.422 75.1823 138.877 74.3361C141.583 73.4899 146.315 75.1823 146.994 71.3731C147.331 70.1874 149.87 67.3917 149.108 70.6093C148.771 75.4344 146.909 79.9225 146.572 84.5804C142.598 92.5382 144.965 81.1082 142.851 79.5006C133.72 77.4688 124.419 77.1293 115.033 76.9595C112.073 77.1293 108.186 76.0285 105.732 77.8057L105.311 85.7636C105.902 91.0155 105.565 96.0078 105.732 101.088C106.494 104.984 105.563 108.873 106.494 112.685C105.395 116.833 108.945 116.664 111.821 116.409C121.458 116.746 131.183 115.985 140.736 115.223C145.132 114.375 151.475 115.223 154.011 110.82C155.703 108.197 155.619 104.303 158.155 102.268C159.845 104.213 157.648 108.361 157.226 110.82C155.958 115.9 155.282 120.98 153.759 125.972C152.828 128.513 150.798 125.383 151.475 124.11C152.406 118.017 145.641 119.879 141.922 119.454C125.517 118.441 109.537 118.693 93.2192 118.269C87.4705 118.269 93.4738 123.179 94.4048 125.211C103.196 136.386 112.075 147.394 120.615 158.739C122.559 160.766 124.252 162.97 125.941 165.257C126.87 166.704 131.69 169.667 127.549 170.763ZM335.041 153.412C328.868 153.243 323.032 151.463 317.455 149.428C313.901 148.585 310.269 146.381 316.524 147.571C319.819 148.757 323.541 149.176 326.923 148.922C341.803 150.447 355.165 141.898 367.252 134.277C374.695 128.86 386.535 126.656 395.578 127.335C396.509 127.929 400.229 128.266 396.679 129.197C384.505 131.059 377.568 140.205 367.252 146.383C357.277 152.988 346.96 154.598 335.041 153.412ZM168.386 144.266C166.272 144.773 158.324 144.521 164.413 143.166C167.625 143.335 170.501 142.492 173.713 142.492C176.08 141.643 181.831 142.911 180.9 138.762C181.237 124.035 181.998 109.472 181.576 94.8247L181.998 84.5804C182.168 61.8053 182.507 39.4545 181.831 16.934C182.507 14.0559 179.462 14.3106 177.605 14.3929C169.148 14.3081 160.523 14.3929 152.154 15.8332C147.588 16.4273 141.755 16.8492 138.709 20.6583C138.288 23.8759 137.441 26.8389 136.85 29.9716C136.935 34.7118 132.876 35.0488 134.483 29.9716C135.245 24.2129 135.412 18.3718 136.173 12.5308C137.356 8.63675 134.651 2.96296 137.948 0C139.046 2.96296 138.455 6.35027 139.808 9.31323C149.363 11.0905 159.255 10.414 168.808 11.3451L209.815 11.5997H210.07L232.566 11.1754C235.608 10.414 240.341 11.8518 240.004 7.19647C240.169 4.99484 243.129 -2.62598 243.217 3.9789C241.607 11.5997 241.355 19.5575 240.004 27.1758C239.328 30.3085 239.917 33.611 238.394 36.4891C235.943 37.6747 237.126 34.2026 236.956 33.2715C236.874 30.2237 237.298 27.0061 236.956 23.9583C238.818 17.6929 229.94 18.4542 226.303 16.9315C217.089 15.9156 207.868 14.7299 198.485 14.3904C194.005 13.2048 193.58 17.0988 193.835 20.4861C193.75 36.0622 192.821 51.4711 192.906 66.88C192.989 86.1829 193.668 104.809 192.906 123.858C193.413 127.33 193.328 130.8 193.413 134.272C194.005 136.558 191.975 140.961 195.021 141.72C198.91 142.062 202.714 143.076 206.603 143.158C207.364 143.582 214.383 143.5 210.747 145.02C196.632 144.518 182.51 144.267 168.386 144.266ZM336.224 136.648C321.003 135.972 305.192 132.587 294.453 121.072C267.989 95.7582 279.574 47.9241 312.55 34.2101C323.539 28.369 336.137 27.5228 348.485 28.369C363.365 28.7909 377.99 35.0563 388.137 46.0619C413.591 74.8478 395.411 124.544 358.967 133.603C351.698 135.804 344.09 136.988 336.224 136.648ZM296.822 133.176C291.328 135.969 287.267 128.69 283.375 125.979C278.558 121.409 273.823 116.752 269.174 112.011C264.352 107.692 260.468 102.104 255.308 98.0422C253.191 95.1616 250.403 92.8752 248.117 90.1693C244.822 85.6812 238.731 88.8139 234.168 88.0501C230.449 87.6282 223.769 87.2038 225.626 93.2146L225.881 110.401C225.881 115.311 225.798 119.966 226.051 124.539C225.207 129.03 230.783 127.505 233.237 128.518C234.757 129.03 236.367 128.86 237.887 129.194C238.983 128.433 242.45 130.295 239.325 130.126C229.94 129.956 220.891 129.956 211.505 129.871H202.202C201.528 129.364 197.637 131.057 198.99 128.94C203.558 128.433 208.373 128.179 212.853 127.078C214.97 124.879 213.872 120.895 214.291 118.019C214.885 96.3423 214.798 74.6731 214.715 52.9988C214.798 49.8661 214.209 46.8182 214.291 43.6855C211.331 41.9108 207.359 42.4175 204.062 41.5713C201.271 42.3326 196.788 39.9613 202.452 40.2159C222.154 39.8764 241.854 39.2848 261.556 42.5024C270.35 43.9402 281.004 50.3753 278.722 60.6196C276.943 68.3228 270.942 73.9117 265.023 78.5671C263.249 80.9384 255.81 82.3762 260.118 86.1854C271.119 102.7 283.882 118.106 296.822 133.176ZM341.803 131.738C349.666 131.825 357.869 130.637 364.97 127.083C385.267 118.279 393.212 92.2885 387.211 72.0521C380.699 45.7224 351.783 27.2657 325.061 33.7008C309.757 36.3243 295.384 47.8417 291.92 63.4178C282.025 94.6549 308.407 130.807 341.803 131.738ZM87.8923 115.738C91.9511 116.414 90.683 110.658 91.1898 108.289C91.5268 95.1641 91.5267 81.9594 92.1183 68.837C91.5267 59.5238 92.1183 50.0433 90.9352 40.8998C87.8923 40.4755 84.847 39.4595 81.6344 39.5444C76.1378 38.3587 80.2815 43.693 79.7723 46.2341C80.6185 53.176 76.3925 59.3565 72.416 64.6035C69.1186 69.5134 63.8766 72.5613 59.9027 76.7124C65.7363 88.1424 74.9521 97.7077 82.1386 108.544C84.173 110.828 85.5259 113.621 87.8923 115.738ZM226.051 85.7661C237.97 86.2753 251.417 85.766 260.633 77.1318C267.058 70.7815 269.846 59.3515 263.174 52.0702C257.507 47.4148 250.658 44.6216 243.471 43.4359C238.479 42.9267 233.492 42.5048 228.422 42.3351C224.191 44.5342 227.403 51.3937 225.881 55.2878C226.223 65.2775 224.785 75.6066 226.051 85.7661ZM27.4375 79.5006C28.3686 79.246 29.2996 80.1771 30.2282 79.5006L37.5844 79.246C50.6045 78.9914 63.8791 72.0496 67.0917 58.7574C69.8824 49.6988 65.9085 39.7915 57.5388 35.3059C51.3658 32.0883 44.686 30.311 37.8365 29.7194C33.7778 29.5497 26.0846 27.0111 27.6047 34.2051C26.5064 45.7199 27.3501 57.402 26.6737 68.9992C27.1829 72.4739 26.4215 75.8587 27.4375 79.5006ZM336.391 177.965C330.218 177.795 324.387 176.103 318.806 174.068C315.256 173.22 311.619 170.933 317.875 172.206C321.175 173.302 324.894 173.816 328.274 173.561C343.159 175.082 356.516 166.447 368.607 158.911C376.046 153.495 387.885 151.291 396.934 151.975C397.865 152.564 401.584 152.906 398.119 153.832C385.858 155.611 378.926 164.757 368.61 171.023C358.632 177.54 348.316 179.233 336.391 177.965Z" fill="#ABAFA9"/>
</svg>
