<svg width="400" height="93" viewBox="0 0 400 93" fill="none" xmlns="http://www.w3.org/2000/svg">
<path fill-rule="evenodd" clip-rule="evenodd" d="M39.1877 44.2244C28.0218 44.2244 17.7321 46.6324 10.0689 50.7929C15.9819 48.1664 23.4243 46.8555 31.3083 46.8555C51.2299 46.8555 67.4325 56.0481 67.4325 67.214C67.4325 78.5985 51.2299 87.7957 31.3083 87.7957C17.9529 87.7957 6.34769 83.6352 0 77.506C6.56846 86.2639 21.6741 92.3931 39.19 92.3931C62.8351 92.3931 81.8827 81.4434 81.8827 68.3088C81.8804 54.9556 62.8328 44.2244 39.1877 44.2244Z" fill="#ABAFA9"/>
<path fill-rule="evenodd" clip-rule="evenodd" d="M61.5196 45.5399C41.5957 45.5399 25.3953 36.3427 25.3953 25.1791C25.3953 13.7947 41.5957 4.59973 61.5196 4.59973C74.875 4.59973 86.4779 8.76022 92.8278 14.8894C86.2594 6.13147 71.1537 0 53.6379 0C30.2113 0 11.1636 10.9474 11.1636 24.0843C11.1636 37.4398 30.2113 48.1687 53.6379 48.1687C65.0223 48.1687 75.312 45.7584 82.7567 41.6002C76.8437 44.2244 69.4012 45.5399 61.5196 45.5399Z" fill="#ABAFA9"/>
<path fill-rule="evenodd" clip-rule="evenodd" d="M96.3306 53.2032H91.5146L92.8278 47.5087H97.6438L99.3963 38.5322L107.936 35.4665L105.089 47.5087H116.694L115.38 53.2032H103.996L99.3963 74.0033C99.1778 75.5327 98.9593 76.8482 98.9593 77.7245C98.9593 81.6619 100.93 83.6375 104.872 83.6375C106.843 83.6375 108.812 83.1982 111.001 82.1035L110.781 88.6742C108.594 89.5459 105.309 89.9851 100.491 89.9851C97.4253 89.9851 95.2358 88.8927 93.4833 87.1402C91.9516 85.3877 91.0753 82.7612 91.0753 79.6955C91.0753 78.8192 91.0754 77.943 91.5123 76.8505L96.3306 53.2032ZM125.668 64.1483C126.763 60.8686 128.297 58.0191 130.702 56.0481C132.892 53.8609 135.518 52.7639 138.584 52.7639C144.276 52.7639 147.342 56.0481 147.342 62.8374C147.342 68.3088 146.029 73.127 143.402 77.506C140.776 81.6619 137.492 83.8537 133.113 83.8537C127.2 83.8537 124.136 80.351 124.136 73.3455C124.134 70.5005 124.792 67.4325 125.668 64.1483ZM120.413 85.6039C123.039 88.4489 126.981 89.9829 131.797 89.9829C137.052 89.9829 141.21 88.4489 144.932 85.6039C148.653 82.7589 151.282 79.2562 152.813 74.8773C154.347 70.4983 155.221 66.3378 155.221 62.3958C155.221 57.3636 153.908 53.4217 151.061 50.7929C148.434 47.9479 144.711 46.6324 139.458 46.6324C132.89 46.6324 127.197 49.2589 122.818 54.7326C118.439 59.9924 116.25 66.3401 116.25 73.7802C116.252 78.817 117.786 82.7589 120.413 85.6039ZM184.779 54.7326C183.192 53.572 181.272 52.9571 179.306 52.9801C176.679 52.9801 174.271 54.0771 171.861 56.4874C169.451 58.8931 167.921 61.9588 167.264 65.2453L163.103 89.1066H155.658L163.103 47.5087H170.548L169.453 54.0794C172.958 49.2612 177.335 46.6347 182.59 46.6347C183.685 46.6347 184.998 46.8577 186.969 47.2925L184.779 54.7326Z" fill="#ABAFA9"/>
<path fill-rule="evenodd" clip-rule="evenodd" d="M211.706 39.19L202.951 89.1066H194.853L203.829 39.19H185.437L186.75 31.9638H231.853L230.538 39.19H211.706ZM251.996 54.7326C250.462 53.6401 248.712 52.9801 246.741 52.9801C244.114 52.9801 241.485 54.0771 239.077 56.4874C236.692 58.8441 235.153 61.9231 234.698 65.2453L230.319 89.1066H223.095L230.319 47.5087H237.764L236.667 54.0794C240.17 49.2612 244.772 46.6347 250.025 46.6347C250.901 46.6347 252.212 46.8577 254.181 47.2925L251.996 54.7326ZM276.515 52.9801C280.894 52.9801 283.086 54.5141 283.086 57.5798C283.086 60.2063 281.77 61.9588 279.144 63.2698C276.733 64.5853 273.231 65.2431 269.293 65.2431C266.667 65.2431 264.256 64.8038 262.288 63.9275C264.912 56.7059 269.728 52.9801 276.515 52.9801ZM270.386 71.593C276.08 71.593 280.894 70.2775 284.615 67.651C288.557 65.0246 290.528 61.3033 290.528 56.9244C290.528 53.6401 289.217 51.0114 286.807 49.2612C284.18 47.5087 280.894 46.6347 276.733 46.6347C269.951 46.6347 264.256 49.045 259.659 53.8632C255.059 58.8954 252.872 64.8083 252.872 71.8138C252.872 83.856 258.343 89.9851 269.07 89.9851C272.138 89.9851 275.857 89.1089 280.02 87.7979L280.896 80.1347C277.833 82.5404 274.548 83.6375 271.48 83.6375C268.201 83.6375 265.351 82.7612 263.599 80.788C261.63 79.0355 260.535 76.409 260.535 72.9063C260.535 71.8138 260.754 70.719 260.97 69.4035C263.891 70.8694 267.118 71.6198 270.386 71.593ZM316.144 89.1066L320.523 64.8038C320.958 62.6166 321.181 60.8664 321.181 59.5486C321.181 55.1696 318.771 52.9778 314.171 52.9778C312.418 52.9778 310.45 53.4171 308.481 54.5118C306.512 55.6089 304.76 56.9221 303.663 58.2376L298.191 89.1044H290.747L296.441 57.5776C296.441 56.7013 296.659 55.8251 296.659 54.9511C296.659 52.3246 296.225 49.9144 295.783 48.1641L303.012 46.6301C303.665 50.5721 303.888 52.5431 303.888 52.9778C307.168 48.8219 311.77 46.6301 317.678 46.6301C325.341 46.6301 329.062 50.5721 329.062 58.2376C329.062 59.7671 328.844 61.3011 328.628 63.2698L324.03 89.1066H316.144ZM359.713 69.4013C359.055 73.7802 357.521 77.0645 355.113 79.9094C352.708 82.5359 350.3 83.8514 347.455 83.8514C341.542 83.8514 338.476 80.1302 338.476 72.9017C338.476 66.9933 340.01 62.175 343.076 58.4538C346.139 54.7281 349.858 52.9778 354.46 52.9778C355.553 52.9778 356.647 53.2009 357.744 53.8586C358.837 54.7303 359.713 55.6111 360.371 56.7036C361.242 58.0146 361.463 58.6723 361.463 58.8908L359.713 69.4013ZM363.65 89.1066L373.94 30.2136H366.716L362.774 51.6691C360.805 48.3849 357.742 46.6324 353.8 46.6324C347.013 46.6324 341.323 49.2589 336.944 54.5141C332.784 59.5508 330.592 66.3378 330.592 74.438C330.592 79.2562 331.689 82.9774 334.318 85.8224C336.944 88.4489 340.447 89.9829 344.826 89.9829C350.081 89.9829 354.237 88.0142 357.087 84.2884L356.21 89.1066H363.65ZM368.469 86.6987L372.19 79.6932C373.282 80.5695 374.6 81.4457 376.569 82.3197C378.538 83.1936 380.072 83.6352 381.387 83.6352C383.793 83.6352 385.548 82.9774 387.077 81.8827C388.611 80.5672 389.269 78.8147 389.269 76.6275C389.269 75.5304 389.046 74.6542 388.172 73.778C387.298 72.9017 385.985 72.0255 384.016 70.933L378.54 67.8695C376.787 66.7725 375.695 65.6778 374.819 64.1438C373.942 62.8328 373.508 61.0803 373.508 59.5463C373.508 55.6089 375.037 52.5409 378.105 50.1306C380.95 47.9434 384.671 46.6279 389.05 46.6279C392.118 46.6279 395.837 47.7203 400 49.4774L396.716 56.4828C394.31 54.0726 391.461 52.9756 388.616 52.9756C386.647 52.9756 385.113 53.4148 383.579 54.5096C382.268 55.3858 381.392 56.7013 381.392 58.4515C381.392 59.544 381.826 60.6388 382.703 61.515C383.579 62.1728 384.894 63.2675 386.863 64.3645L392.335 67.2095C394.087 68.0857 395.184 69.3967 396.06 70.7122C396.937 72.2462 397.371 73.7757 397.371 75.3097C397.371 79.9071 395.619 83.4144 392.558 86.0409C389.273 88.6674 385.113 89.9783 380.076 89.9783C375.693 89.9829 371.755 88.8904 368.469 86.6987Z" fill="#ABAFA9"/>
</svg>
