<svg width="2273" height="257" viewBox="0 0 2273 257" fill="none" xmlns="http://www.w3.org/2000/svg">
<path d="M384.831 0H10.1687C4.54586 0 0 4.57085 0 10.2089V246.791C0 252.429 4.54586 257 10.1687 257H384.831C390.454 257 395 252.429 395 246.791V10.2089C395 4.57085 390.454 0 384.831 0ZM30.5831 77.6624H72.7407C78.4265 77.8801 83.0074 79.6986 84.5879 85.8001L93.7566 130.069C84.7488 106.913 63.0405 87.6467 30.2334 79.6705L30.5831 77.6624ZM81.5946 178.628L57.2428 95.1033C74.7479 106.351 89.6583 124.199 94.9105 136.62L97.7499 146.934L124.382 78.6243H153.195L110.373 178.607L81.5946 178.628ZM174.372 178.699H147.181L164.182 78.519H191.388L174.372 178.699ZM221.691 180.201C209.501 180.075 197.759 177.652 191.395 174.851L195.22 152.432L198.724 154.026C207.655 157.768 213.438 159.285 224.328 159.285C232.139 159.285 240.511 156.217 240.588 149.504C240.637 145.116 237.084 141.984 226.496 137.069C216.173 132.281 202.507 124.249 202.675 109.862C202.822 90.392 221.761 76.8058 248.637 76.8058C259.17 76.8058 267.611 78.9824 272.996 81.0115L269.325 102.728L266.87 101.57C261.862 99.5477 255.421 97.5958 246.518 97.7362C235.874 97.7362 230.937 102.188 230.937 106.351C230.881 111.042 236.699 114.131 246.211 118.779C261.897 125.927 269.15 134.598 269.052 145.994C268.842 166.777 250.288 180.201 221.691 180.201ZM339.534 178.741C339.534 178.741 337.051 167.226 336.226 163.729C332.267 163.729 304.516 163.687 301.397 163.687C300.341 166.39 295.684 178.741 295.684 178.741H267.129L307.503 86.9375C310.37 80.4147 315.231 78.6243 321.749 78.6243H342.758L364.767 178.734L339.534 178.741Z" fill="#8C9E8A"/>
<path d="M325.497 114.278L323.665 105.642C322.28 109.413 319.895 115.472 320.049 115.205C320.049 115.205 311.454 137.442 309.216 143.206H331.799C330.708 138.186 325.497 114.278 325.497 114.278Z" fill="#8C9E8A"/>
<path d="M553.984 104.772C552.379 103.718 549.988 103.185 546.847 103.185L544.161 103.199C542.402 103.185 540.6 104.603 540.256 106.316L537.781 116.989C537.396 118.716 538.496 120.127 540.277 120.127H542.282C546.735 120.127 550.184 119.221 552.659 117.396C555.134 115.584 556.403 113.008 556.347 109.672C556.361 107.468 555.569 105.818 553.984 104.772Z" fill="#8C9E8A"/>
<path d="M597.805 129.367C597.321 129.381 593.612 129.802 591.733 130.034C589.63 130.336 587.807 130.757 586.328 131.256L582.85 133.629C582.037 134.654 581.651 135.96 581.651 137.638L583.236 140.714C584.308 141.317 585.893 141.612 587.912 141.612C589.244 141.612 590.689 141.289 592.203 140.671L595.428 139.007L596.704 137.308C597.209 135.328 598.254 130.926 598.373 130.378L597.805 129.367Z" fill="#8C9E8A"/>
<path d="M854.806 0H479.194C473.557 0 469 4.57085 469 10.2089V246.784C469 252.422 473.557 257 479.194 257H854.806C860.443 257 865 252.429 865 246.791V10.2089C865 4.57085 860.443 0 854.806 0ZM563.541 124.67C557.96 128.784 550.191 130.835 540.151 130.849H537.809C536.007 130.849 534.247 132.267 533.876 133.966L531.057 146.169C530.658 147.91 528.898 149.301 527.117 149.301H518.914C517.133 149.301 516.018 147.868 516.439 146.169L527.972 95.8756C528.393 94.1484 530.139 92.7652 531.92 92.7371L549.055 92.7301C552.757 92.7652 555.962 92.9899 558.738 93.4954C561.472 94.015 563.856 94.8856 565.876 96.1214C567.811 97.3431 569.374 98.979 570.356 100.959C571.45 102.939 571.933 105.418 571.933 108.366C571.933 115.107 569.164 120.555 563.541 124.67ZM614.457 118.252L614.149 120.366L608.161 146.288C607.81 147.847 606.268 149.174 604.634 149.364L604.522 149.406H596.894L596.866 149.378C595.302 149.23 594.335 147.903 594.671 146.302V146.288L594.685 146.239L594.994 144.919L594.952 144.87L591.86 146.913L588.494 148.795L584.526 150.157C583.306 150.452 581.588 150.628 579.372 150.628C575.874 150.628 572.943 149.666 570.727 147.679C568.526 145.649 567.39 143.059 567.39 139.885C567.39 136.515 568.168 133.664 569.732 131.291C571.351 128.932 573.665 127.092 576.792 125.716C579.702 124.389 583.201 123.406 587.197 122.851C591.278 122.262 594.643 121.833 599.306 121.538L600.484 120.808L600.631 119.65C600.631 117.866 599.803 116.638 598.156 115.914C596.487 115.212 593.977 114.861 590.696 114.861C588.466 114.833 585.662 115.289 583.004 115.893C580.221 116.525 579.457 116.939 578.096 117.347C577.465 117.564 575.944 117.67 576.512 115.03L577.514 110.894C577.514 110.894 578.005 107.77 581.125 107.089C582.633 106.752 582.871 106.688 585.332 106.309C588.662 105.797 591.958 105.537 595.26 105.537C601.942 105.537 606.836 106.408 609.928 108.156C613.034 109.897 614.618 112.621 614.604 116.279L614.457 118.252ZM627.645 169.325L619.148 169.339C617.381 169.339 616.799 167.935 617.879 166.208L625.149 153.513C625.149 153.513 625.731 152.79 625.212 148.648C624.091 141.163 618.51 109.342 618.51 109.342C618.103 107.622 619.197 106.211 620.964 106.211L628.318 106.197C630.569 106.197 632.378 107.678 632.785 109.42L636.445 131.488L637.805 131.502C638.948 129.472 650.699 109.279 650.699 109.279C651.82 107.58 654.092 106.141 655.859 106.141C655.859 106.141 663.761 106.162 665.703 106.141C668.62 106.099 665.479 110.831 665.479 110.831L632.778 166.208C631.726 167.935 629.398 169.325 627.645 169.325ZM712.602 124.888C707 128.981 699.196 131.052 689.156 131.052H686.814C685.047 131.024 683.28 132.464 682.874 134.163L680.097 146.387C679.691 148.093 677.896 149.497 676.157 149.476L667.933 149.497C666.187 149.504 665.037 148.086 665.458 146.38L676.998 96.0582C677.419 94.352 679.144 92.9618 680.925 92.9337L698.081 92.9197C701.762 92.9337 705.001 93.1935 707.722 93.6779C710.491 94.1835 712.875 95.0541 714.866 96.2969C716.823 97.5537 718.358 99.1616 719.382 101.156C720.433 103.122 720.945 105.607 720.959 108.556C720.959 115.289 718.148 120.724 712.602 124.888ZM763.49 118.288L763.188 120.415L757.187 146.317C756.85 147.882 755.301 149.209 753.688 149.406L753.576 149.448H752.398C750.701 149.448 747.125 149.448 746.095 149.448H745.948L745.934 149.406C744.342 149.258 743.36 147.938 743.746 146.331L743.732 146.309L743.767 146.281L744.041 144.961L743.991 144.898L740.92 146.969L737.534 148.844L733.573 150.185C732.353 150.501 730.628 150.635 728.433 150.67C724.928 150.67 722.025 149.673 719.795 147.7C717.58 145.692 716.437 143.087 716.437 139.899C716.437 136.55 717.215 133.685 718.786 131.326C720.391 128.967 722.74 127.134 725.839 125.744C728.77 124.41 732.29 123.441 736.265 122.879C740.317 122.29 743.683 121.861 748.381 121.573L749.558 120.829L749.685 119.671C749.685 117.901 748.871 116.659 747.203 115.942C745.534 115.233 743.024 114.882 739.757 114.882C737.513 114.868 734.701 115.318 732.051 115.914C729.282 116.56 728.531 116.961 727.178 117.368C726.491 117.571 725.012 117.691 725.573 115.051L726.575 110.922C726.575 110.922 727.045 107.791 730.179 107.117C731.701 106.787 731.946 106.709 734.4 106.351C737.709 105.818 741.026 105.558 744.328 105.558C750.982 105.558 755.869 106.443 758.989 108.191C762.116 109.932 763.679 112.642 763.679 116.301L763.49 118.288ZM789.782 96.4724L778.789 146.331L778.403 146.92C777.751 148.325 776.363 149.462 774.855 149.462H767.227L767.087 149.287C765.635 149.062 764.689 147.889 765.032 146.359L765.018 146.324L765.348 144.884L775.627 98.1084L775.991 96.4794L776.405 95.8405C777.071 94.4643 778.431 93.3479 779.939 93.3479H787.279C789.067 93.3479 790.14 94.7452 789.761 96.4584L789.782 96.4724ZM804.352 91.0801H801.604V94.7382L801.625 95.7211L801.814 96.3811L802.249 96.8024L803.09 96.9358L803.777 96.8375L804.289 96.6831H804.352V97.8837L803.532 98.0452L802.753 98.1084L800.888 97.4413L800.25 95.335V91.0801H799.325V89.9426H800.25V87.6607H801.604V89.9426H804.352V91.0801ZM817.638 92.7582V97.9328H816.313V93.369L816.229 92.393L816.054 91.6207L815.591 91.1643L814.701 91.0028L813.586 91.2907L812.443 92.0139L812.464 92.4071L812.478 92.8284V97.9469H811.146V93.3831L811.09 92.393L810.901 91.6277L810.452 91.1713L809.547 91.0099L808.447 91.2837L807.332 91.9788V97.9469H806.014V89.9496H807.332V90.8414L808.608 90.0269L809.926 89.732L811.314 90.062L812.17 91.0169L813.642 90.0269L815.079 89.732L817.021 90.5254L817.652 92.7582H817.638Z" fill="#8C9E8A"/>
<path d="M746.845 129.409C746.361 129.402 742.666 129.838 740.815 130.076C738.691 130.378 736.875 130.792 735.41 131.298C733.909 131.888 732.689 132.681 731.897 133.671C731.112 134.696 730.719 136.002 730.719 137.687L732.325 140.756C733.348 141.367 734.912 141.661 736.994 141.661C738.305 141.661 739.75 141.338 741.257 140.728L744.461 139.064L745.779 137.364C746.27 135.363 747.336 130.975 747.42 130.427L746.845 129.409Z" fill="#8C9E8A"/>
<path d="M702.982 104.961C701.363 103.901 699.007 103.381 695.859 103.367L693.187 103.381C691.42 103.367 689.626 104.8 689.261 106.506L686.779 117.171C686.379 118.884 687.522 120.317 689.296 120.303H691.336C695.774 120.303 699.217 119.39 701.699 117.606C704.153 115.774 705.401 113.218 705.387 109.855C705.345 107.664 704.581 106.014 702.982 104.961Z" fill="#8C9E8A"/>
<path d="M1217.12 126.685C1212.22 125.491 1206.46 129.788 1205.81 135.258C1208.98 135.911 1215.45 135.125 1217.93 133.833C1219.63 132.941 1220.49 131.466 1220.23 129.746C1219.96 127.984 1218.79 127.099 1217.12 126.685Z" fill="#8C9E8A"/>
<path d="M997.823 112.642C994.914 111.603 991.907 111.828 988.927 112.221C988.564 112.277 988.067 112.832 987.983 113.232C986.927 118.625 985.927 124.01 984.787 130.083C987.298 130.083 989.536 130.273 991.725 130.034C995.97 129.578 999.418 127.647 1001.31 123.582C1003.47 118.983 1001.92 114.103 997.823 112.642Z" fill="#8C9E8A"/>
<path d="M1323.83 0H949.169C943.546 0 939 4.57085 939 10.2089V246.784C939 252.422 943.546 257 949.169 257H1323.83C1329.45 257 1334 252.429 1334 246.791V10.2089C1334 4.57787 1329.45 0 1323.83 0ZM1060.31 76.539C1061.36 76.9252 1062.46 77.522 1063.21 78.3364C1069.73 85.2735 1073.83 93.4182 1074.95 102.96C1075.17 104.8 1075.26 106.653 1075.42 108.5C1075.31 114.243 1074.28 119.804 1072.33 125.189C1072.12 125.765 1071.7 126.285 1071.32 126.776C1070.41 127.977 1069.44 128.075 1068.75 126.769C1067.86 125.049 1067.1 123.202 1066.67 121.314C1065.35 115.5 1064.13 109.658 1063.02 103.803C1061.6 96.3109 1060.32 88.7911 1059 81.2854C1058.8 80.2041 1058.71 79.1018 1058.62 78.0135C1058.52 76.7637 1059.23 76.1458 1060.31 76.539ZM999.866 138.312C994.83 139.99 989.697 140.369 984.48 139.892C983.249 139.766 982.878 140.096 982.668 141.261C981.577 147.292 980.402 153.331 979.213 159.348C979.129 159.825 978.696 160.612 978.402 160.619C974.73 160.71 971.052 160.682 967.121 160.682C967.681 157.586 968.163 154.742 968.702 151.919C971.66 136.332 974.654 120.752 977.591 105.158C977.773 104.175 978.059 103.494 979.073 103.339C986.759 102.174 994.452 101.387 1002.12 103.29C1008.82 104.947 1013.48 109.658 1014.27 115.212C1015.87 126.292 1009.45 135.146 999.866 138.312ZM1048.67 160.745C1046.14 160.661 1043.58 160.661 1041.04 160.738C1039.73 160.794 1039.3 160.303 1039.42 159.025C1039.61 156.982 1039.69 154.925 1039.83 152.762C1037.76 154.925 1036.13 157.087 1034.06 158.688C1029.77 162.016 1024.85 162.781 1019.87 160.478C1014.95 158.218 1012.93 153.815 1012.73 148.626C1012.29 137.729 1016.06 128.714 1025.22 122.437C1030.97 118.498 1037.56 117.291 1044.39 117.677C1047.88 117.873 1051.35 118.709 1054.83 119.186C1056.23 119.39 1056.42 120.169 1056.19 121.391C1054.65 129.522 1053 137.631 1051.67 145.797C1050.95 150.136 1050.74 154.559 1050.46 158.955C1050.38 160.268 1050.07 160.801 1048.67 160.745ZM1060.61 174.97C1058.39 178.671 1056.97 182.834 1055.15 186.773C1054.87 187.363 1054.23 188.381 1054.02 188.311C1053.23 188.072 1052.11 187.616 1051.91 186.991C1051.42 185.453 1050.93 183.684 1051.23 182.16C1052.8 173.896 1056.21 166.271 1060.04 158.842C1067.46 144.435 1076.75 131.312 1087.61 119.362C1093.8 112.565 1100.21 105.958 1106.81 99.5828C1116.74 89.9918 1127.79 81.8822 1140.13 75.6052C1145.82 72.7124 1151.76 70.5428 1158.03 69.3633C1159.08 69.1596 1160.12 68.9069 1161.15 68.6822C1161.15 68.6822 1174.08 66.1826 1179.74 75.9211C1179.74 75.9211 1181.29 78.2873 1180.99 79.0737C1180.63 79.9864 1179.14 80.8641 1178.05 81.0186C1167.71 82.5633 1157.67 85.2805 1148.04 89.2545C1142.44 91.5575 1137.02 94.345 1131.69 97.2167C1120.07 103.473 1110.64 112.502 1101.43 121.77C1091.68 131.572 1082.57 141.935 1074.62 153.239C1069.66 160.289 1065.03 167.584 1060.61 174.97ZM1139.65 148.479C1135 157.199 1127.6 161.44 1120.12 161.658C1109.25 161.686 1103.06 157.642 1100.78 150.375C1097.05 138.432 1104.22 119.783 1121.79 117.824C1127.05 117.241 1131.96 117.901 1136.28 121.117C1140.38 124.178 1142.37 128.44 1142.69 133.51C1143.02 138.769 1142.13 143.817 1139.65 148.479ZM1186.39 141.451C1185.25 147.426 1184.13 153.387 1182.93 159.341C1182.82 159.861 1182.2 160.668 1181.8 160.682C1178.27 160.773 1174.74 160.71 1171.22 160.682C1171.06 160.682 1170.91 160.556 1170.57 160.401C1171.2 156.961 1171.89 153.52 1172.5 150.066C1173.43 144.772 1174.34 139.464 1175.2 134.156C1175.33 133.25 1175.27 132.295 1175.17 131.382C1174.83 128.216 1172.53 126.741 1169.47 127.731C1166.5 128.679 1164.75 130.968 1163.29 133.524C1161.15 137.273 1160.4 141.43 1159.68 145.614C1158.88 150.157 1158.07 154.721 1157.17 159.257C1157.07 159.79 1156.45 160.626 1156.03 160.64C1152.42 160.752 1148.78 160.703 1144.77 160.703C1147.37 146.555 1149.91 132.667 1152.47 118.674C1155.94 118.674 1159.26 118.674 1162.88 118.674C1162.71 120.899 1162.54 123.034 1162.36 125.239C1163.56 124.108 1164.61 123.076 1165.72 122.107C1169.77 118.561 1174.43 116.989 1179.8 117.873C1184.25 118.603 1187.32 121.882 1187.82 126.446C1188.38 131.53 1187.33 136.48 1186.39 141.451ZM1224.82 141.289C1220.98 143.199 1216.83 143.922 1212.6 144.175C1209.96 144.329 1207.3 144.203 1204.59 144.203C1204.32 148.479 1207.2 151.512 1211.54 152.046C1215.77 152.565 1219.84 151.891 1223.78 150.375C1224.21 150.213 1224.65 150.045 1225.08 149.897C1225.17 149.862 1225.31 149.89 1225.6 149.89C1225.84 152.376 1226.14 154.897 1226.27 157.41C1226.28 157.902 1225.72 158.702 1225.26 158.892C1218.41 161.714 1211.3 162.69 1204.08 160.808C1197.34 159.067 1193.66 154.222 1192.91 147.454C1191.85 137.877 1194.64 129.465 1202.07 123.125C1208.19 117.894 1215.36 116.258 1223.16 118.589C1228.35 120.141 1231.26 124.038 1231.66 129.444C1232.03 134.759 1229.73 138.825 1224.82 141.289ZM1265.34 141.472C1260.19 143.873 1254.66 144.224 1249.1 144.344C1247.95 144.365 1246.8 144.344 1245.59 144.344C1245.19 148.395 1248.08 151.498 1252.47 152.032C1256.57 152.523 1260.52 151.912 1264.38 150.494C1265.02 150.262 1265.67 150.017 1266.52 149.701C1266.79 152.362 1267.09 154.875 1267.22 157.382C1267.25 157.874 1266.7 158.681 1266.22 158.871C1259.26 161.742 1252.06 162.725 1244.73 160.717C1238.14 158.906 1234.66 154.089 1233.87 147.489C1232.85 139.056 1235.01 131.417 1240.87 125.175C1247.16 118.47 1254.96 116.076 1263.88 118.547C1269.35 120.064 1272.26 124.01 1272.6 129.571C1272.92 135.005 1270.46 139.099 1265.34 141.472ZM1303.67 128.855C1303.6 129.149 1303.07 129.522 1302.71 129.578C1294.6 130.645 1291.22 133.524 1289.2 141.837C1287.79 147.622 1286.87 153.52 1285.69 159.362C1285.6 159.847 1285.17 160.626 1284.88 160.633C1281.09 160.717 1277.3 160.689 1273.26 160.689C1273.81 157.635 1274.28 154.868 1274.82 152.095C1276.95 141.423 1279.15 130.764 1280.02 119.881C1280.05 119.432 1280.67 118.674 1281.02 118.66C1284.12 118.561 1287.25 118.603 1290.63 118.603C1290.39 121.531 1290.17 124.27 1289.95 127.015C1293.74 121.433 1298.09 116.925 1305.88 117.74C1305.12 121.637 1304.43 125.253 1303.67 128.855Z" fill="#8C9E8A"/>
<path d="M1258.2 126.734C1253.33 125.386 1247.29 129.838 1246.75 135.616C1249.36 135.441 1251.85 135.412 1254.27 135.082C1255.88 134.865 1257.54 134.359 1259.04 133.706C1260.65 132.997 1261.42 131.53 1261.17 129.725C1260.93 127.984 1259.76 127.155 1258.2 126.734Z" fill="#8C9E8A"/>
<path d="M1032.62 129.346C1027.37 133.784 1025 139.576 1025.46 146.443C1025.59 148.556 1026.39 150.571 1028.6 151.477C1030.82 152.369 1032.84 151.723 1034.55 150.255C1035.6 149.364 1036.57 148.318 1037.3 147.173C1041.19 141.17 1041.29 134.149 1042.72 127.345C1038.74 126.229 1035.42 126.994 1032.62 129.346Z" fill="#8C9E8A"/>
<path d="M1129.91 133.411C1129.53 128.686 1125.96 126.158 1121.6 127.148C1119.48 127.633 1117.9 128.974 1116.62 130.687C1113.78 134.563 1112.63 138.986 1112.5 143.705C1112.5 144.344 1112.46 144.989 1112.5 145.614C1112.84 149.911 1115.91 152.72 1119.95 152.348C1122.2 152.137 1123.98 150.951 1125.34 149.216C1128.98 144.582 1130.41 139.204 1129.91 133.411Z" fill="#8C9E8A"/>
<path d="M1629.8 85.119H1583.47C1580.51 90.729 1578.55 94.9699 1578 96.0231H1634.19C1632.92 92.2737 1631.46 88.6437 1629.8 85.119Z" fill="#8C9E8A"/>
<path d="M1559.99 112.13C1555.54 112.13 1551.66 112.699 1545.63 114.229L1544.05 123.209L1545.06 122.95L1546.78 122.514C1549.36 121.826 1553.24 121.412 1556.69 121.412C1562.28 121.412 1564.44 122.395 1564.44 125.028C1564.44 125.758 1564.3 126.306 1564.01 127.619C1562.14 127.422 1560.42 127.31 1559.13 127.31C1545.78 127.31 1538.03 132.99 1538.03 142.679C1538.03 149.125 1542.48 153.569 1548.94 153.569C1554.4 153.569 1558.57 152.032 1561.58 148.753L1561.29 152.881H1571.34L1571.48 151.8L1571.62 150.431L1571.91 148.409L1572.34 145.881L1574.93 131.712C1575.65 127.275 1575.79 125.779 1575.79 123.813C1575.79 116.188 1570.33 112.13 1559.99 112.13ZM1553.97 145.116C1551.24 145.116 1549.66 143.515 1549.66 141.051C1549.66 137.02 1553.11 134.984 1559.86 134.984C1560.72 134.984 1561.3 135.005 1562.59 135.139C1562.3 141.037 1558.85 145.116 1553.97 145.116Z" fill="#8C9E8A"/>
<path d="M1522.24 103.866L1508.88 134.233L1508.02 103.866H1489.21L1479.87 152.902H1490.78L1497.96 115.437L1499.97 152.902H1510.88L1527.4 115.198L1520.22 152.902H1532.28L1541.76 103.866H1522.24Z" fill="#8C9E8A"/>
<path d="M1741.52 149.23C1741.51 148.964 1741.37 148.69 1741.23 148.542C1740.94 148.402 1740.65 148.388 1740.51 148.388H1739.36V151.14H1739.94V150.066H1740.37L1740.8 151.14H1741.52L1741.09 149.946C1741.37 149.827 1741.52 149.532 1741.52 149.23ZM1740.65 149.539C1740.51 149.595 1740.37 149.595 1740.37 149.595H1739.93V148.879H1740.23C1740.37 148.879 1740.66 148.879 1740.66 148.942C1740.81 148.999 1740.81 149.111 1740.81 149.216C1740.81 149.336 1740.79 149.476 1740.65 149.539Z" fill="#8C9E8A"/>
<path d="M1766.73 184.295C1766.71 184.021 1766.58 183.747 1766.43 183.607C1766.15 183.466 1765.86 183.452 1765.71 183.452H1764.57V186.204H1765.14V185.123H1765.57L1766.01 186.204H1766.73L1766.29 185.004C1766.58 184.898 1766.73 184.604 1766.73 184.295ZM1765.86 184.604C1765.71 184.66 1765.57 184.66 1765.57 184.66H1765.14V183.951H1765.42C1765.57 183.951 1765.86 183.951 1765.86 184.007C1766.01 184.063 1766.01 184.182 1766.01 184.281C1766.01 184.407 1766.01 184.533 1765.86 184.604Z" fill="#8C9E8A"/>
<path d="M1793.81 0H1418.19C1412.56 0 1408 4.57085 1408 10.2089V246.791C1408 252.429 1412.56 257 1418.19 257H1793.81C1799.44 257 1804 252.429 1804 246.791V10.2089C1804 4.57085 1799.44 0 1793.81 0ZM1768.45 186.619C1768.15 187.152 1767.75 187.56 1767.23 187.847C1766.71 188.135 1766.17 188.283 1765.61 188.283C1765.03 188.283 1764.48 188.135 1763.97 187.847C1763.45 187.56 1763.05 187.152 1762.75 186.619C1762.46 186.106 1762.31 185.558 1762.31 184.99C1762.31 184.421 1762.46 183.88 1762.75 183.347C1763.04 182.813 1763.46 182.413 1763.98 182.125C1764.51 181.851 1765.04 181.704 1765.6 181.704C1766.15 181.704 1766.69 181.851 1767.2 182.125C1767.73 182.413 1768.14 182.813 1768.43 183.347C1768.73 183.88 1768.87 184.428 1768.87 184.99C1768.87 185.551 1768.74 186.12 1768.45 186.619ZM1775.79 128.503C1775.81 184.709 1730.33 230.291 1674.2 230.305C1647.95 230.312 1624.01 220.349 1605.98 203.982C1587.95 220.321 1564.06 230.277 1537.85 230.277C1481.75 230.277 1436.22 184.688 1436.22 128.503C1436.22 72.5439 1481.39 27.0881 1537.2 26.723C1537.42 26.723 1537.63 26.723 1537.85 26.723C1564.06 26.723 1587.95 36.6792 1605.99 53.0177C1624.01 36.6722 1647.92 26.709 1674.15 26.7019C1730.28 26.6809 1775.79 72.242 1775.81 128.454C1775.79 128.468 1775.79 128.475 1775.79 128.503Z" fill="#8C9E8A"/>
<path d="M1616.05 63.5286H1596.74C1594.14 67.0392 1591.7 70.7745 1589.5 74.4256H1623.94C1621.55 70.6201 1618.91 66.983 1616.05 63.5286Z" fill="#8C9E8A"/>
<path d="M1637.4 121.545C1639.85 121.545 1643.01 121.756 1646.17 122.128L1647.89 112.909C1644.73 112.474 1639.99 112.123 1637.12 112.123C1623.63 112.123 1618.87 118.259 1618.88 125.597C1618.88 130.624 1621.75 134.099 1628.21 136.711C1633.08 138.698 1633.81 139.288 1633.81 141.114C1633.81 143.585 1631.67 144.709 1626.93 144.709C1623.18 144.709 1619.89 144.217 1616.01 143.136L1614.29 152.334L1617.01 152.832C1617.73 152.973 1618.88 153.092 1620.32 153.19C1623.18 153.401 1625.33 153.52 1626.91 153.52C1639.84 153.52 1645.73 149.315 1645.73 140.222C1645.73 134.745 1643.29 131.551 1637.12 129.121C1632.09 127.106 1631.51 126.65 1631.51 124.782C1631.51 122.641 1633.52 121.545 1637.4 121.545Z" fill="#8C9E8A"/>
<path d="M1700.32 112.93C1699.74 112.79 1699.31 112.713 1699.31 112.692C1698.88 112.628 1698.44 112.593 1698.01 112.593C1694.13 112.593 1691.26 114.363 1687.53 119.074L1688.68 113.022H1677.76L1670.43 152.902H1682.5C1686.81 128.518 1688.67 124.235 1694.41 124.235C1694.85 124.235 1695.28 124.27 1695.85 124.333L1697.29 124.628L1701.61 113.366C1700.61 112.979 1700.46 112.979 1700.32 112.93Z" fill="#8C9E8A"/>
<path d="M1664.11 122.718H1670.29L1672.01 113.015H1665.84L1667.57 103.859H1655.65L1650.05 134.303L1649.47 137.456L1648.75 141.381C1648.6 142.644 1648.46 143.838 1648.46 144.954C1648.46 150.614 1651.76 153.717 1657.94 153.717C1660.67 153.717 1663.25 153.324 1666.56 152.418L1668.13 143.571C1667.29 143.831 1666.28 143.957 1664.98 143.957C1662.11 143.957 1660.81 143.073 1660.81 141.008C1660.81 140.643 1660.81 140.089 1660.95 139.358L1664.11 122.718Z" fill="#8C9E8A"/>
<path d="M1740.37 146.668C1738.64 146.668 1737.2 148.065 1737.2 149.771C1737.2 151.498 1738.64 152.895 1740.37 152.895C1742.09 152.895 1743.53 151.498 1743.53 149.771C1743.53 148.072 1742.09 146.668 1740.37 146.668ZM1740.37 152.151C1739.08 152.151 1737.93 151.091 1737.93 149.771C1737.93 148.465 1739.08 147.412 1740.37 147.412C1741.67 147.412 1742.66 148.465 1742.66 149.771C1742.66 151.091 1741.67 152.151 1740.37 152.151Z" fill="#8C9E8A"/>
<path d="M1720.26 111.884C1705.9 111.884 1696.57 121.468 1696.57 135.588C1696.57 145.706 1702.02 153.977 1715.68 153.977C1728.02 153.977 1737.21 148.086 1739.08 134.83C1739.37 132.513 1739.37 132.351 1739.37 129.88C1739.37 119.755 1732.76 111.884 1720.26 111.884ZM1726.15 134.486C1725.15 140.699 1719.56 144.259 1716.97 144.259C1712.66 144.344 1710.08 140.699 1710.08 135.286C1710.08 128.883 1713.81 121.616 1719.98 121.616C1724.86 121.616 1726.58 125.569 1726.58 129.725C1726.58 131.452 1726.44 133.025 1726.15 134.486Z" fill="#8C9E8A"/>
<path d="M1613.69 136.367C1614.71 132.323 1615.14 129.458 1615.14 126.509C1615.14 117.67 1608.82 112.032 1598.92 112.032C1586.85 112.032 1577.95 122.107 1577.95 135.778C1577.95 147.538 1584.99 153.654 1598.48 153.654C1602.65 153.654 1606.67 153.127 1610.69 152.046L1612.7 142.062C1608.39 143.817 1604.51 144.596 1600.2 144.596C1593.31 144.596 1589.72 142.244 1589.72 137.624C1589.72 137.252 1589.72 136.978 1589.87 136.367H1613.69ZM1598.77 121.159C1602.36 121.159 1604.37 123.048 1604.37 126.285C1604.37 126.818 1604.37 127.478 1604.37 128.335L1591.02 128.321C1592.17 123.687 1594.9 121.159 1598.77 121.159Z" fill="#8C9E8A"/>
<path d="M1582.01 171.481C1583.77 175.258 1585.82 178.86 1588.01 182.378H1624.07C1626.26 178.874 1628.23 175.244 1629.99 171.481H1582.01Z" fill="#8C9E8A"/>
<path d="M1595.57 192.832C1598.79 196.785 1602.2 200.556 1605.96 203.954C1606.05 203.877 1606.14 203.814 1606.22 203.73H1606.24C1609.94 200.352 1613.4 196.715 1616.56 192.832H1595.57Z" fill="#8C9E8A"/>
<path d="M2262.83 0H1888.17C1882.55 0 1878 4.57085 1878 10.2089V246.784C1878 252.422 1882.55 257 1888.17 257H2262.83C2268.45 257 2273 252.429 2273 246.791V10.2089C2273 4.57085 2268.45 0 2262.83 0ZM1975.17 117.424L1973.99 114.749V114.896C1973.99 118.33 1971.22 121.117 1967.8 121.117H1949.55C1947.03 121.117 1944.78 119.594 1943.82 117.262L1941.95 112.713H1931.56L1929.66 117.291C1928.71 119.608 1926.44 121.124 1923.96 121.124H1914.21C1912.12 121.124 1910.18 120.071 1909.03 118.33C1907.89 116.574 1907.69 114.37 1908.51 112.453L1924.57 74.7696C1925.54 72.4877 1927.79 70.9992 1930.27 70.9992H1943.59C1946.07 70.9992 1948.3 72.4807 1949.29 74.7626L1952.65 82.6405V77.2271C1952.65 73.7937 1955.42 71.0062 1958.85 71.0062H1973.5C1975.9 71.0062 1978.11 72.4245 1979.13 74.6222L1985 87.415L1990.32 74.8047C1991.29 72.5018 1993.54 71.0062 1996.02 71.0062H2010.97C2012.23 71.0062 2013.33 71.4767 2014.31 72.1226C2015.29 71.4767 2016.39 71.0062 2017.66 71.0062H2047.62C2048.78 71.0062 2049.81 71.4135 2050.72 71.9681C2051.65 71.4135 2052.67 71.0062 2053.83 71.0062H2074.46C2079.8 71.0062 2084.21 71.1958 2088.43 73.6392C2088.86 73.899 2089.17 74.229 2089.55 74.5098C2090.56 72.4596 2092.63 71.0062 2095.07 71.0062H2104.22C2107.32 71.0062 2109.78 73.3233 2110.24 76.2933C2114.25 72.8037 2119.72 71.0062 2127.08 71.0062H2135.76C2137.13 71.0062 2138.43 71.4626 2139.46 72.242C2140.5 71.4556 2141.79 71.0062 2143.16 71.0062H2156.6C2159.07 71.0062 2161.3 72.4947 2162.29 74.7767L2165.58 82.5141V77.2271C2165.58 73.7937 2168.36 71.0062 2171.79 71.0062H2185.45C2187.62 71.0062 2189.63 72.1437 2190.75 74.0113L2195.01 81.1098V77.2201C2195.01 73.7867 2197.8 70.9992 2201.22 70.9992H2210.4C2213.83 70.9992 2216.6 73.7867 2216.6 77.2201V114.903C2216.6 118.337 2213.81 121.124 2210.4 121.124H2197.7C2195.51 121.124 2193.5 119.987 2192.38 118.119L2186.87 108.956V114.903C2186.87 118.337 2184.09 121.124 2180.68 121.124H2162.42C2159.92 121.124 2157.68 119.615 2156.7 117.298L2154.8 112.72H2144.46L2142.63 117.234C2141.7 119.586 2139.42 121.131 2136.91 121.131H2126.41C2122.41 121.131 2115.27 120.408 2110.17 116.118C2109.59 118.955 2107.21 121.131 2104.21 121.131H2095.05C2094.03 121.131 2093.1 120.822 2092.24 120.38C2091.4 120.822 2090.48 121.131 2089.46 121.131H2080.41C2077 121.131 2074.23 118.372 2074.21 114.959L2074.17 110.206L2074.19 109.378C2074.19 108.872 2074.2 108.114 2074.16 107.475C2073.74 107.447 2073.19 107.426 2072.42 107.426H2069V114.91C2069 118.344 2066.22 121.131 2062.8 121.131H2053.82C2052.66 121.131 2051.64 120.724 2050.71 120.169C2049.79 120.724 2048.76 121.131 2047.6 121.131H2017.64C2016.38 121.131 2015.28 120.654 2014.3 120.015C2013.31 120.654 2012.21 121.131 2010.96 121.131H2001.76C1998.33 121.131 1995.56 118.351 1995.56 114.917V114.763L1994.37 117.431C1993.38 119.685 1991.17 121.138 1988.71 121.138H1980.83C1978.38 121.138 1976.16 119.678 1975.17 117.424ZM2222.72 185.98H2205.25C2202.69 185.98 2200.5 184.414 2199.55 182.195C2196.15 184.618 2191.64 185.98 2186.07 185.98H2168.6C2167.61 185.98 2166.73 185.706 2165.91 185.306C2165.09 185.706 2164.2 185.98 2163.22 185.98H2133.29C2132.29 185.98 2131.37 185.706 2130.55 185.278C2129.71 185.692 2128.81 185.98 2127.82 185.98H2118.82C2115.38 185.98 2112.62 183.192 2112.62 179.759V174.282C2112.63 173.749 2112.63 172.934 2112.59 172.267C2112.17 172.239 2111.59 172.211 2110.77 172.211H2107.38V179.759C2107.38 183.199 2104.61 185.98 2101.19 185.98H2092.17C2088.74 185.98 2085.97 183.192 2085.97 179.759V170.182C2082.79 172.085 2078.4 173.334 2072.34 173.334H2067.35V179.759C2067.35 183.199 2064.58 185.98 2061.15 185.98H2043.71C2041.94 185.98 2040.25 185.221 2039.08 183.894L2032.58 176.55L2025.73 183.993C2024.56 185.264 2022.91 185.994 2021.19 185.994H1985.65C1982.23 185.994 1979.46 183.199 1979.46 179.766V142.083C1979.46 138.635 1982.23 135.855 1985.65 135.855H2021.73C2023.5 135.855 2025.17 136.599 2026.33 137.919L2032.85 145.2L2039.64 137.842C2040.82 136.571 2042.46 135.855 2044.19 135.855H2072.85C2079.13 135.855 2083.55 137.252 2086.69 139.316C2087.7 137.28 2089.75 135.855 2092.17 135.855H2112.89C2117.66 135.855 2122.27 136.037 2126.6 138.361C2127.07 138.635 2127.37 138.993 2127.81 139.288C2128.83 137.273 2130.85 135.855 2133.27 135.855H2163.2C2165.52 135.855 2167.48 137.196 2168.54 139.099C2171.49 137.091 2175.41 135.855 2180.35 135.855H2198.32C2201.03 135.855 2203.25 137.603 2204.11 140.011C2207.19 137.505 2211.39 135.855 2217 135.855H2234.98C2238.4 135.855 2241.17 138.642 2241.17 142.083V150.101C2241.17 152.299 2240.05 154.229 2238.34 155.339C2238.39 155.395 2238.46 155.458 2238.52 155.521C2241.6 158.695 2243 162.613 2243 167.879C2243 179.211 2235.42 185.994 2222.72 185.98Z" fill="#8C9E8A"/>
<path d="M2083.53 97.4203C2085.86 96.4935 2089.85 93.3831 2089.85 87.3799C2089.85 83.1741 2088.14 80.7167 2085.32 79.0315C2082.41 77.3464 2079.03 77.2271 2074.45 77.2271H2053.82V114.91H2062.8V101.212H2072.42C2075.65 101.212 2077.65 101.5 2078.95 102.82C2080.58 104.631 2080.37 107.889 2080.37 110.157L2080.41 114.91H2089.46V107.503C2089.46 104.14 2089.24 102.469 2087.97 100.594C2087.17 99.4916 2085.49 98.1716 2083.53 97.4203ZM2078.13 92.6739C2076.88 93.4252 2075.43 93.4462 2073.69 93.4462H2062.79L2062.79 85.0839H2073.84C2075.4 85.0839 2077.03 85.1611 2078.09 85.765C2079.26 86.3126 2079.98 87.4782 2079.98 89.0931C2079.98 90.736 2079.28 92.0631 2078.13 92.6739Z" fill="#8C9E8A"/>
<path d="M2104.24 77.2341H2095.08V114.917H2104.24V77.2341Z" fill="#8C9E8A"/>
<path d="M2201.22 77.2341V103.48L2185.45 77.2341H2171.79V112.874L2156.6 77.2341H2143.16L2130.49 106.864H2126.47C2124.13 106.864 2121.59 106.415 2120.22 104.919C2118.53 103.023 2117.75 100.109 2117.75 96.0792C2117.75 92.1192 2118.79 89.1282 2120.32 87.5413C2122.1 85.8001 2123.94 85.3086 2127.23 85.3086H2135.73V77.2341H2127.05C2120.87 77.2341 2116.31 78.6173 2113.43 81.6224C2109.58 85.6596 2108.59 90.7711 2108.59 96.3601C2108.59 103.206 2110.24 107.545 2113.41 110.747C2116.52 113.941 2122.04 114.91 2126.41 114.917H2136.92L2140.29 106.513H2158.92L2162.42 114.917H2180.68V86.6356L2197.7 114.917H2210.4V77.2341H2201.22ZM2143.5 98.649L2149.66 83.6305L2155.88 98.649H2143.5Z" fill="#8C9E8A"/>
<path d="M2127.25 91.5224C2125.14 91.5154 2124.92 91.7401 2124.67 91.9858C2124.58 92.1052 2123.95 93.4603 2123.95 96.0722C2123.95 98.656 2124.36 99.8988 2124.67 100.461C2124.98 100.545 2125.56 100.643 2126.43 100.643L2130.32 91.5224H2127.25Z" fill="#8C9E8A"/>
<path d="M2163.21 149.869V142.076H2133.28V179.766H2163.21V171.951L2142.21 171.902V164.417H2162.7V156.722H2142.21V149.869H2163.21Z" fill="#8C9E8A"/>
<path d="M2072.85 142.09H2044.19L2032.78 154.433L2021.73 142.09H1985.65V179.773H2021.19L2032.67 167.296L2043.72 179.773H2061.16V167.135H2072.35C2080.19 167.135 2087.96 164.972 2087.96 154.503C2087.96 144.07 2079.97 142.076 2072.85 142.09ZM2016.65 171.93H1994.6V164.431H2014.29V156.736H1994.6V149.883H2017.09L2026.9 160.858L2016.65 171.93ZM2052.22 176.347L2038.44 160.984L2052.22 146.127V176.347ZM2072.74 159.467H2061.16V149.869H2072.85C2076.09 149.869 2078.33 151.196 2078.33 154.496C2078.33 157.761 2076.19 159.481 2072.74 159.467Z" fill="#8C9E8A"/>
<path d="M2121.94 162.248C2124.29 161.307 2128.3 158.246 2128.32 152.214C2128.32 147.917 2126.53 145.558 2123.71 143.845C2120.75 142.265 2117.45 142.076 2112.91 142.076H2092.2V179.759H2101.21V165.997H2110.79C2114.06 165.997 2116.06 166.32 2117.37 167.668C2119.04 169.424 2118.82 172.78 2118.82 175.048V179.759H2127.82V172.288C2127.79 168.967 2127.61 167.254 2126.33 165.414C2125.57 164.326 2123.93 162.978 2121.94 162.248ZM2116.54 157.565C2115.34 158.281 2113.85 158.344 2112.1 158.344H2101.19V149.876H2112.24C2113.83 149.876 2115.43 149.911 2116.52 150.557C2117.69 151.168 2118.38 152.341 2118.38 153.949C2118.38 155.556 2117.69 156.87 2116.54 157.565Z" fill="#8C9E8A"/>
<path d="M2197.5 159.868C2195.43 157.817 2192.09 156.975 2187.22 156.862L2182.4 156.722C2180.87 156.722 2179.87 156.624 2178.91 156.294C2177.78 155.865 2176.95 154.911 2176.95 153.485C2176.95 152.292 2177.31 151.386 2178.31 150.768C2179.2 150.157 2180.26 150.087 2181.9 150.087H2198.35V142.069H2180.38C2170.96 142.069 2167.55 147.812 2167.55 153.289C2167.55 165.204 2178.06 164.67 2186.44 164.944C2188.01 164.944 2188.95 165.204 2189.64 165.779C2190.27 166.313 2190.73 167.17 2190.73 168.272C2190.73 169.297 2190.29 170.154 2189.68 170.73C2188.92 171.446 2187.71 171.663 2186.02 171.663H2168.62V179.745H2186.09C2195.13 179.745 2200.19 175.96 2200.19 167.851C2200.19 163.982 2199.25 161.679 2197.5 159.868Z" fill="#8C9E8A"/>
<path d="M1996.01 77.2201L1985.23 102.785L1973.49 77.2201H1958.85V112.902L1943.58 77.2201H1930.26L1914.2 114.903H1923.94L1927.42 106.499H1946.1L1949.54 114.903H1967.8V85.3647L1980.83 114.896L1988.72 114.903L2001.73 85.3928L2001.77 114.903H2010.96V77.2201H1996.01ZM1930.62 98.649L1936.72 83.6305L1942.85 98.649H1930.62Z" fill="#8C9E8A"/>
<path d="M2047.6 85.0699V77.2201H2017.63V114.91H2047.6V107.117H2026.6V99.5828H2047.1V91.8665H2026.6V85.0699H2047.6Z" fill="#8C9E8A"/>
<path d="M2234.14 159.868C2232.09 157.817 2228.74 156.975 2223.88 156.862L2219.05 156.722C2217.53 156.722 2216.52 156.624 2215.55 156.294C2214.44 155.865 2213.6 154.911 2213.6 153.485C2213.6 152.292 2213.97 151.386 2214.95 150.768C2215.86 150.157 2216.92 150.087 2218.55 150.087H2235.01V142.069H2217.02C2207.62 142.069 2204.2 147.812 2204.2 153.289C2204.2 165.204 2214.72 164.67 2223.1 164.944C2224.67 164.944 2225.6 165.204 2226.3 165.779C2226.91 166.313 2227.38 167.17 2227.38 168.272C2227.38 169.297 2226.94 170.154 2226.34 170.73C2225.58 171.446 2224.37 171.663 2222.67 171.663H2205.28V179.745H2222.75C2231.79 179.745 2236.84 175.96 2236.84 167.851C2236.84 163.982 2235.91 161.679 2234.14 159.868Z" fill="#8C9E8A"/>
</svg>
